<?xml version="1.0" encoding="UTF-8"?>
<svg id="Layer_2" data-name="Layer 2" xmlns="http://www.w3.org/2000/svg" viewBox="0 0 3914.23 3301.06">
  <defs>
    <style>
      .cls-1 {
        fill: #f6befd;
      }

      .cls-2 {
        fill: #e58fea;
      }

      .cls-3 {
        fill: #fff;
      }

      .cls-4 {
        fill: #feb6ff;
      }

      .cls-5 {
        fill: #c356cd;
      }

      .cls-6 {
        fill: #a74f45;
      }

      .cls-7 {
        fill: #d87cdf;
      }

      .cls-8 {
        fill: #e0e0e0;
      }

      .cls-9 {
        fill: #200705;
      }

      .cls-10 {
        fill: #962da5;
      }

      .cls-11 {
        fill: #542416;
      }

      .cls-12 {
        fill: #771c84;
      }
    </style>
  </defs>
  <g>
    <path class="cls-7" d="M3034.63,432.21c30.91-69.05,67.88-279.4,163.84-345.72,105.1-72.64,330.76,0,330.76,0l-494.6,345.72Z"/>
    <path class="cls-1" d="M3212.26,108.03c74.43-50.23,214.58-20.68,288.29-1.49l28.69-20.05s-225.66-72.64-330.76,0c-49.58,34.27-83.41,106.99-108.8,178.79,22.71-55.41,65.94-119.03,122.58-157.26Z"/>
    <path class="cls-12" d="M3028.48,439.65l3.8-8.5c8.12-18.14,16.73-46.34,26.7-78.99,28.16-92.22,66.73-218.52,138.02-267.79,24.34-16.82,57.06-27.28,97.24-31.09,31.98-3.03,68.78-1.88,109.35,3.42,68.99,9.01,125.86,27.16,126.42,27.34l4.94,1.59-4.25,2.97-502.23,351.06ZM3331.47,56.85c-47.39,0-96.46,7.52-131.53,31.76-69.81,48.25-108.08,173.56-136.02,265.06-8.63,28.24-16.24,53.17-23.45,71.32l482.97-337.59c-15.31-4.57-63.81-18.21-120.58-25.61-21.77-2.84-46.35-4.94-71.38-4.94Z"/>
  </g>
  <g>
    <path class="cls-7" d="M3626.61,701.51c40.19-30.77,261.56-67.2,281.56-180.33,30.66-173.48-147.08-373.12-173.36-426.32-61.83,255.93-108.2,606.65-108.2,606.65Z"/>
    <path class="cls-5" d="M3898.9,393.14c10.2,177.85-203.9,190.47-260.51,225.03-7.57,51.48-11.79,83.34-11.79,83.34,40.19-30.77,261.56-67.2,281.56-180.33,7.42-41.96,2.62-85.46-9.26-128.04Z"/>
    <path class="cls-12" d="M3623.24,707.33l.81-6.16c.46-3.51,47.09-353.78,108.25-606.92l1.67-6.9,3.15,6.37c5.4,10.94,17.5,28.44,32.81,50.59,29.75,43.04,70.49,101.98,101.4,168.31,36.72,78.78,49.96,149.1,39.38,209.01-6.47,36.63-33.53,68.4-82.73,97.13-41.5,24.23-91.38,41.88-131.46,56.06-30.74,10.88-57.28,20.27-68.34,28.74l-4.93,3.78Zm112.49-605.31c-56.06,234.51-99.58,548.27-105.81,594.16,13.16-7.92,36.39-16.14,64.87-26.22,78.35-27.72,196.76-69.62,210.83-149.23,24.07-136.21-82.62-290.56-139.94-373.49-12.92-18.69-23.56-34.08-29.95-45.22Z"/>
  </g>
  <g>
    <path class="cls-7" d="M3706.96,14.2c-117.46-72.98-454.41,214.5-692.47,412.19-221.98,184.33-570.88,463.71-599.73,535.84-28.85,72.13,5.14,207.94,241.13,394.67,248.34,196.5,447.22,273.07,564.7,217.43,117.47-55.65,334.87-597.92,433.81-891.64,98.93-293.71,136.06-616.61,52.57-668.49Z"/>
    <path class="cls-1" d="M2422.05,971.72c28.85-72.13,382.33-344.43,604.31-528.76C3264.42,245.27,3601.22-25.13,3706.96,14.2c-117.46-72.98-454.41,214.5-692.47,412.19-221.98,184.33-570.88,463.71-599.73,535.84-8.16,20.41-11.29,45.92-6.24,76.24-.16-17.48,7.79-52.4,13.54-66.76Z"/>
    <path class="cls-5" d="M2655.88,1359.96c248.34,196.5,447.22,273.07,564.7,217.43,117.47-55.65,334.87-597.92,433.81-891.64,85.91-255.03,125.19-532.03,79.4-634.54,7.79,145.12-56.07,345.76-136.4,537.19-92.12,219.51-293.8,553.46-430.02,571.53-170.35,22.59-291.05-93.21-418.06-159.78-90.59-47.49-226.09-94.46-291.91-38.27-40.72,34.76-47,70.11-43.78,102.26,21,74.82,89.05,174.58,242.27,295.82Z"/>
    <path class="cls-12" d="M3134.94,1594.62c-43.4,0-93.05-10.69-148.54-32.06-96.57-37.18-208.3-105.7-332.1-203.65-107.48-85.04-181.69-166.17-220.57-241.14-39.18-75.54-33.24-126.8-21.35-156.51,11.14-27.85,69.5-87.92,178.42-183.65,94.51-83.07,213.91-181.47,319.25-268.29,36.38-29.98,70.74-58.3,102.81-84.93,9.71-8.06,19.58-16.27,29.59-24.6,119.74-99.58,255.45-212.45,377.76-293.69,142.97-94.96,237.22-125.75,288.13-94.11,20.82,12.94,34.99,42.15,42.11,86.82,6.61,41.51,7.02,95.06,1.22,159.16-11.32,125.15-45.88,280.24-94.82,425.52-45.91,136.3-125.2,348.51-210.05,535.34-44.05,97-84.62,176.18-120.57,235.33-41.33,67.99-76.5,109.2-104.53,122.48-25.3,11.99-54.29,17.97-86.76,17.98ZM3661.31,5.14c-136.27,0-409.72,227.42-615.57,398.62-10.01,8.33-19.89,16.54-29.59,24.6-32.08,26.63-66.44,54.96-102.82,84.94-210.17,173.21-471.72,388.78-496.16,449.88-11.48,28.7-17.13,78.41,21.14,152.22,38.54,74.32,112.29,154.89,219.19,239.47,123.39,97.63,234.67,165.89,330.75,202.89,95.64,36.83,173.44,41.61,231.24,14.24,51.06-24.19,128.04-147.04,222.61-355.28,84.77-186.65,163.98-398.67,209.86-534.85,48.81-144.91,83.28-299.58,94.57-424.34,11.92-131.7-2.62-217.34-40.92-241.14-12.35-7.68-27.26-11.24-44.31-11.24Z"/>
  </g>
  <g>
    <ellipse class="cls-5" cx="2854.78" cy="918.93" rx="49.46" ry="25.76" transform="translate(446.54 2706.27) rotate(-54.42)"/>
    <ellipse class="cls-5" cx="3075.3" cy="961.18" rx="88.62" ry="56.68" transform="translate(739.24 3180.23) rotate(-60.89)"/>
    <ellipse class="cls-5" cx="3368.52" cy="795.74" rx="52.55" ry="32.97" transform="translate(818.99 3136.69) rotate(-55.85)"/>
    <ellipse class="cls-10" cx="3150.52" cy="1214.68" rx="42.25" ry="24.73" transform="translate(287.27 3004.38) rotate(-53.09)"/>
    <ellipse class="cls-5" cx="3116.94" cy="701.51" rx="65.95" ry="35.38" transform="translate(742.17 2838.77) rotate(-54.67)"/>
    <ellipse class="cls-5" cx="3388.56" cy="496.16" rx="75.22" ry="45.34" transform="translate(778.48 2713.36) rotate(-48.68)"/>
    <path class="cls-5" d="M3602.33,532.81c-12.27,20.51-30.93,31.93-41.67,25.5-10.74-6.43-9.51-28.27,2.76-48.78,12.27-20.51,30.93-31.93,41.67-25.5,10.74,6.43,9.51,28.27-2.76,48.78Z"/>
    <path class="cls-5" d="M3570.67,230.05c-14.06,20.72-34.63,31.3-45.93,23.63-11.3-7.67-9.06-30.69,5-51.4,14.06-20.72,34.63-31.3,45.93-23.63,11.3,7.67,9.06,30.69-5,51.4Z"/>
  </g>
  <g>
    <ellipse class="cls-10" cx="2804.15" cy="1268.5" rx="125.11" ry="418.12" transform="translate(32.55 2606.63) rotate(-50.11)"/>
    <path class="cls-12" d="M3079.16,1555.95c-27.24,0-63.12-9.24-105.9-27.6-75.97-32.61-165.11-90.1-250.99-161.88-85.88-71.78-158.28-149.3-203.85-218.27-46.12-69.81-59.28-122.9-37.06-149.49,22.22-26.59,76.81-23.06,153.69,9.94,75.97,32.61,165.11,90.1,250.99,161.88,85.88,71.78,158.28,149.3,203.85,218.27,46.12,69.81,59.28,122.9,37.06,149.49-9.86,11.79-26.08,17.66-47.79,17.66Zm-550.2-569.76c-20.2,0-34.86,5.31-43.65,15.83-10.26,12.28-12.12,31.16-5.5,56.13,6.53,24.67,20.97,54.01,42.91,87.22,45.31,68.57,117.35,145.7,202.86,217.16,85.51,71.47,174.19,128.68,249.72,161.09,36.57,15.7,68.02,24.7,93.45,26.75,25.74,2.08,43.99-3.1,54.26-15.38,10.26-12.28,12.12-31.16,5.5-56.13-6.53-24.67-20.97-54.01-42.91-87.22-45.31-68.57-117.35-145.7-202.86-217.16-85.51-71.47-174.19-128.68-249.72-161.09-36.57-15.7-68.01-24.7-93.45-26.75-3.69-.3-7.23-.45-10.61-.45Z"/>
  </g>
  <g>
    <path class="cls-7" d="M2884.38,1172.51c-113.46-94.83-227.9-160.54-307.17-181.61-57.41,18.93-87.22,74.44-52.54,162.01,20.89,30.77,47.64,63.97,79.19,98.06,138.62,121.04,405.78,263.58,405.78,263.58,43.24,6.48,90.13,1.54,125.17-13.27-3.61-71.91-102.94-205.51-250.43-328.77Z"/>
    <path class="cls-5" d="M2884.38,1172.51c-113.46-94.83-227.9-160.54-307.17-181.61-10.49,3.46-20.04,8.15-28.46,14.03,79.71,23.38,203.36,90.92,313.14,182.67,147.48,123.26,190.59,228.41,152.07,251.22l-4.31,75.74c43.24,6.48,90.13,1.54,125.17-13.27-3.61-71.91-102.94-205.51-250.43-328.77Z"/>
    <path class="cls-12" d="M3047.75,1519.92c-12.88,0-25.83-.93-38.5-2.83l-.44-.07-.39-.21c-2.67-1.43-269.01-144.06-406.26-263.91l-.2-.19c-31.48-34.02-58.21-67.11-79.43-98.37l-.16-.23-.1-.26c-17.81-44.97-19.72-84.76-5.54-115.08,11.1-23.71,31.73-41.12,59.67-50.33l.73-.24,.74,.2c82.87,22.03,198.07,90.12,308.16,182.13,71.74,59.96,133.83,123.61,179.57,184.07,45.14,59.67,69.96,110.35,71.78,146.55l.09,1.8-1.66,.7c-25.19,10.65-56.39,16.27-88.06,16.27Zm-37.29-7.86c42.09,6.23,87.37,1.58,121.66-12.46-5.23-73.16-107.32-206.37-249.39-325.12-109.21-91.28-223.31-158.85-305.44-180.9-26.19,8.82-45.51,25.19-55.89,47.38-13.54,28.94-11.61,67.22,5.56,110.73,21.03,30.94,47.51,63.71,78.7,97.42,134.4,117.32,393.1,256.66,404.81,262.94Z"/>
  </g>
  <g>
    <ellipse class="cls-3" cx="2136.48" cy="1392.34" rx="168.22" ry="104.82" transform="translate(294.29 3155.72) rotate(-76.84)"/>
    <path class="cls-8" d="M2027.77,1415.37c-3.55,71,23.98,129.92,70.41,140.78,55.05,12.87,116.24-46.59,138.78-133.63-54.59,53.4-197.47,130.01-209.19-7.15Z"/>
    <path d="M2113.53,1560.49c-5.37,0-10.69-.61-15.94-1.83-28.16-6.58-50.47-30.21-62.81-66.53-12.2-35.9-13.22-80.02-2.88-124.23,10.34-44.22,30.82-83.31,57.67-110.08,27.16-27.08,57.63-38.37,85.79-31.79,28.16,6.58,50.47,30.21,62.81,66.53,12.2,35.9,13.22,80.02,2.88,124.23-10.34,44.22-30.82,83.31-57.67,110.08-22.11,22.04-46.4,33.62-69.86,33.62Zm45.93-331.14c-22.1,0-45.14,11.06-66.25,32.11-26.17,26.1-46.16,64.31-56.29,107.6-10.12,43.29-9.15,86.41,2.74,121.4,11.75,34.57,32.74,57.01,59.1,63.17,26.36,6.16,55.12-4.64,80.98-30.42,26.17-26.1,46.16-64.31,56.29-107.6,20.8-88.94-6.95-171.74-61.84-184.58-4.84-1.13-9.76-1.69-14.73-1.69Z"/>
  </g>
  <g>
    <ellipse class="cls-11" cx="2090.17" cy="1414.59" rx="53.69" ry="33.45" transform="translate(236.87 3127.81) rotate(-76.84)"/>
    <path class="cls-6" d="M2122.75,1422.21c-6.75,28.87-26.81,48.87-44.8,44.67-17.99-4.21-27.1-31.02-20.35-59.9,5.93,53.68,46.81,40.9,65.15,15.23Z"/>
    <path d="M2113.46,1429.32c-5.9,16.87-20.9,26.98-33.5,22.58-12.6-4.4-18.04-21.65-12.15-38.53,5.9-16.87,20.89-26.98,33.5-22.58,12.6,4.4,18.04,21.65,12.15,38.53Z"/>
    <path class="cls-3" d="M2098.62,1395.51c-2.14,6.12-8.45,9.48-14.09,7.51-5.65-1.97-8.49-8.53-6.35-14.65,2.14-6.12,8.45-9.48,14.09-7.51,5.65,1.97,8.49,8.53,6.35,14.65Z"/>
    <path class="cls-3" d="M2099.96,1445.2c-.9,2.59-3.57,4.01-5.96,3.18s-3.59-3.61-2.69-6.2,3.57-4.01,5.96-3.18c2.39,.83,3.59,3.61,2.69,6.2Z"/>
    <path class="cls-9" d="M2082.86,1470.01c-1.85,0-3.68-.21-5.5-.63-9.6-2.24-17.17-10.19-21.31-22.38-4-11.76-4.34-26.19-.97-40.61,7.06-30.21,28.55-51.11,47.9-46.59,9.6,2.24,17.17,10.19,21.31,22.38,4,11.76,4.34,26.19,.97,40.61-3.37,14.43-10.08,27.2-18.87,35.98-7.39,7.37-15.57,11.24-23.52,11.24Zm14.61-105.7c-15.38,0-31.5,18.17-37.37,43.24-3.16,13.5-2.86,26.92,.83,37.78,3.55,10.44,9.8,17.19,17.6,19.02,7.8,1.83,16.4-1.46,24.21-9.24,8.13-8.1,14.34-20,17.49-33.5h0c3.16-13.5,2.86-26.92-.83-37.78-3.55-10.44-9.8-17.19-17.6-19.02-1.43-.34-2.88-.5-4.34-.5Z"/>
  </g>
  <g>
    <ellipse class="cls-4" cx="1190.75" cy="1826.49" rx="62.05" ry="40.63" transform="translate(-630.92 628.38) rotate(-23.57)"/>
    <path class="cls-2" d="M1247.63,1801.68c-6.41-14.69-24.96-21.68-46.48-19.51,5.18,2.76,9.26,6.74,11.77,11.77,18.87,24.26,6.99,53.25-12.81,72.45,2.29-.8,4.59-1.66,6.88-2.66,31.41-13.7,49.61-41.48,40.63-62.05Z"/>
    <path class="cls-12" d="M1172.84,1873.83c-3.86,0-7.63-.3-11.25-.92-14.7-2.5-25.38-9.81-30.08-20.58-4.7-10.77-2.79-23.57,5.38-36.04,7.95-12.13,20.94-22.58,36.59-29.4,15.65-6.82,32.14-9.25,46.44-6.81,14.7,2.5,25.38,9.81,30.08,20.58,4.7,10.77,2.79,23.57-5.38,36.04-7.95,12.13-20.94,22.58-36.59,29.4-11.68,5.09-23.83,7.73-35.19,7.73Zm35.81-89.53c-10.64,0-22.07,2.49-33.11,7.31-14.74,6.43-26.93,16.19-34.34,27.5-7.18,10.97-8.95,22.04-4.97,31.16,3.98,9.13,13.29,15.36,26.22,17.56,13.32,2.27,28.78-.03,43.52-6.46,14.74-6.43,26.93-16.2,34.34-27.5,7.18-10.97,8.95-22.04,4.97-31.16h0c-3.98-9.13-13.29-15.36-26.22-17.56-3.35-.57-6.83-.85-10.41-.85Z"/>
  </g>
  <g>
    <ellipse class="cls-4" cx="1400.79" cy="1797.69" rx="40.63" ry="62.05" transform="translate(-458.19 3116.05) rotate(-87.42)"/>
    <path class="cls-2" d="M1421.2,1759.82c4.76,4.86,8.23,10.46,9.89,18.76,8.56,31.38-19.97,52.16-48.69,57.43,5.25,1.2,10.79,2.01,16.56,2.27,34.24,1.54,62.81-15.38,63.82-37.79,.82-18.16-16.7-34.34-41.58-40.66Z"/>
    <path class="cls-12" d="M1403.31,1840.96c-1.48,0-2.97-.03-4.47-.1-17.05-.77-32.92-5.86-44.69-14.35-12.09-8.72-18.46-19.99-17.93-31.73,.53-11.74,7.89-22.39,20.71-29.98,12.48-7.39,28.74-11.04,45.8-10.27,35.6,1.61,63.69,22.28,62.62,46.08h0c-.53,11.74-7.89,22.39-20.71,29.98-11.39,6.74-25.92,10.37-41.33,10.37Zm-5.05-81.38c-14.49,0-28.1,3.37-38.69,9.65-11.28,6.68-17.74,15.84-18.19,25.78-.45,9.95,5.16,19.65,15.8,27.32,10.96,7.9,25.84,12.66,41.91,13.38,16.06,.72,31.31-2.67,42.94-9.55,11.28-6.68,17.74-15.84,18.19-25.78,.95-20.96-24.94-39.22-57.7-40.7-1.42-.06-2.84-.1-4.25-.1Z"/>
  </g>
  <g>
    <g>
      <path class="cls-4" d="M1753.31,1781.74c-28.73,7.25-106.91,94.16-200.24,139.84-63.15,30.91-192.48,51.52-257.4,73.85-45.53,15.66-132.02,52.41-125.72,68.7,8.24,21.3,126.23,9.96,206.61,11.37,82.43,1.44,225.34,3.82,333.46-10.61,162.71-21.71,285.94-84.91,387.95-163.02,102.01-78.1,134.9-172.11,134.9-172.11l-479.58,51.98Z"/>
      <path class="cls-2" d="M2038.72,1822.99c-102.01,78.1-229.71,143.98-348.5,172.73-106.02,25.65-225.66,40.82-307.82,47.63-67.93,5.63-200.1,28.84-207.89,10.56-3.86,3.88-5.65,7.37-4.55,10.22,8.24,21.3,126.23,9.96,206.61,11.37,82.43,1.44,225.34,3.82,333.46-10.61,162.71-21.71,285.94-84.91,387.95-163.01,102.01-78.1,134.9-172.11,134.9-172.11,0,0-92.16,15.13-194.17,93.24Z"/>
      <path class="cls-12" d="M1246.77,2079.79c-46.67,0-74.68-3.03-79.21-14.73-.81-2.09-.64-4.37,.49-6.8,9.78-21.04,97.01-55.02,126.8-65.26,25.82-8.88,61.62-17.45,99.52-26.52,58.84-14.09,119.68-28.65,157.58-47.2,53.8-26.34,103.5-67.23,139.79-97.09,28.04-23.07,48.31-39.75,60.95-42.94l.35-.06,483.63-52.42-1.35,3.85c-.34,.97-8.56,24.16-29.45,57.29-19.25,30.53-53.32,75.44-106.32,116.02-56.16,43-112.33,76.68-171.74,102.96-68.67,30.39-139.8,50.2-217.44,60.56-109.16,14.57-255.32,12.01-333.85,10.63-22.69-.4-48.69,.23-73.83,.84-20.8,.5-39.52,.88-55.92,.88Zm507-295.51c-11.56,3.03-32.41,20.18-58.77,41.88-36.49,30.02-86.45,71.14-140.8,97.74-38.41,18.8-99.53,33.43-158.64,47.59-37.78,9.04-73.46,17.59-99.05,26.39-47.27,16.26-116.59,47.04-123.8,62.56-.78,1.67-.46,2.5-.35,2.77,1.53,3.94,10.07,9.01,42.13,10.77,24.27,1.33,55.26,.58,88.08-.21,25.19-.61,51.25-1.23,74.05-.84,78.39,1.38,224.3,3.93,333.08-10.59,142.18-18.97,268.68-72.13,386.73-162.51,52.33-40.06,85.98-84.39,105-114.52,15.75-24.96,24.34-44.56,27.55-52.53l-475.19,51.51Z"/>
    </g>
    <g>
      <g>
        <ellipse class="cls-4" cx="1338.77" cy="2035.5" rx="55.28" ry="32.16" transform="translate(-246.77 185.74) rotate(-7.27)"/>
        <path class="cls-2" d="M1383.36,2012.84c2.61,3.26,4.22,6.93,4.49,10.93,1.15,17.04-21.55,33.4-50.71,36.52-25.41,2.72-47.32-5.5-53.31-18.93,0,0,0,.01,0,.02,1.2,17.74,26.77,29.49,57.12,26.24,30.35-3.25,53.97-20.27,52.77-38.02-.44-6.56-4.24-12.3-10.36-16.76Z"/>
        <path class="cls-12" d="M1330.81,2070.75c-16.33,0-30.86-4.27-40.11-12.03-5.75-4.82-9.01-10.75-9.45-17.15-1.31-19.4,22.87-37.3,55.07-40.75,20.46-2.2,39.35,2.1,50.52,11.47,5.75,4.82,9.01,10.75,9.45,17.15,1.31,19.4-22.87,37.3-55.07,40.75-3.53,.38-7.01,.56-10.41,.56Zm15.7-65.34c-3.16,0-6.39,.17-9.64,.52-28.94,3.1-51.58,18.93-50.47,35.28,.34,4.97,2.97,9.65,7.62,13.56,9.97,8.37,27.85,12.31,46.66,10.3,28.94-3.1,51.58-18.93,50.47-35.28-.34-4.97-2.97-9.65-7.62-13.56-8.24-6.92-21.9-10.81-37.02-10.81Z"/>
      </g>
      <g>
        <path class="cls-2" d="M1306.4,2045.04c-3.86-4.98-1.57-17.09,27.48-21.21,29.05-4.12,42.04,2.54,38.28,13.3-7.01,10.57-51.12,19.91-65.76,7.91Z"/>
        <path class="cls-12" d="M1301.5,2038.32c1.62-3.99,7.98-13.63,32.01-17.04,20.04-2.84,35.05-.5,41.17,6.43,4.79,6.58-2.53,9.42-2.53,9.42,.63-2.32,.19-4.28-1.34-6.01-3.77-4.27-15.36-7.76-36.58-4.74-21.99,3.12-26.96,11.41-27.96,13.88-.91,2.24-.53,3.94,.12,4.78,0,0-6.96,0-4.89-6.72Z"/>
      </g>
    </g>
    <g>
      <g>
        <ellipse class="cls-4" cx="1517.8" cy="1990" rx="55.28" ry="32.16" transform="translate(-610.75 673.53) rotate(-20.93)"/>
        <path class="cls-2" d="M1569.8,1971.3c-1.72-5.45-5.76-9.68-11.38-12.6,1.87,2.09,3.33,4.46,4.18,7.16,5.22,16.47-12.21,37.64-38.92,47.27-26.72,9.64-52.6,4.09-57.82-12.38-.24-.76-.38-1.54-.53-2.32-.67,3.54-.56,7,.47,10.28,5.36,16.96,32.98,22.33,61.7,12,28.72-10.33,47.66-32.45,42.3-49.4Z"/>
        <path class="cls-12" d="M1499.04,2028.57c-8.48,0-16.2-1.55-22.47-4.65-6.72-3.33-11.3-8.32-13.23-14.44-5.86-18.54,13.42-41.65,43.88-52.61,19.36-6.97,38.73-7.26,51.8-.79,6.72,3.33,11.3,8.32,13.23,14.44,5.86,18.54-13.42,41.65-43.88,52.61-10.07,3.62-20.14,5.44-29.33,5.44Zm37.53-71.94c-8.64,0-18.19,1.7-27.61,5.09-27.39,9.85-45.65,30.58-40.71,46.2,1.5,4.75,5.17,8.68,10.6,11.37,11.66,5.78,29.97,5.39,47.77-1.02,27.39-9.85,45.65-30.58,40.71-46.2-1.5-4.75-5.17-8.68-10.6-11.37-5.49-2.72-12.46-4.07-20.16-4.07Z"/>
      </g>
      <g>
        <path class="cls-2" d="M1488.6,2006.92c-4.92-3.93-5.56-16.24,21.7-27.1,27.26-10.87,40.63-7.26,40.34,3.89-5.47,13.81-47.46,28.92-62.04,23.22Z"/>
        <path class="cls-12" d="M1482.25,2001.55c.63-4.26,4.53-15.13,27.08-24.12,18.8-7.49,33.94-8.76,41.52-3.47,4.96,4.26-.23,9.75-.23,9.75,.06-2.4-.83-4.21-2.72-5.52-4.67-3.25-16.76-3.91-36.67,4.03-20.63,8.22-23.5,17.46-23.89,20.09-.35,2.39,.41,3.95,1.24,4.62,0,0-7,1.16-6.34-5.37Z"/>
      </g>
    </g>
    <g>
      <g>
        <ellipse class="cls-4" cx="1682.46" cy="1913.94" rx="62.55" ry="36.39" transform="translate(-721.95 1069.74) rotate(-29.34)"/>
        <path class="cls-2" d="M1737.57,1884.41c-2.75-5.66-7.75-9.68-14.25-12.05,2.73,2.04,4.93,4.57,6.41,7.62,8.29,17.04-8.07,43.24-36.56,58.5-28.48,15.27-58.29,13.83-66.59-3.21-.61-1.26-1.05-2.59-1.4-3.94-.29,4.34,.36,8.46,2.16,12.16,8.8,18.1,40.61,19.54,71.05,3.23,30.44-16.31,47.98-44.2,39.18-62.3Z"/>
        <path class="cls-12" d="M1657.53,1960.67c-5.57,0-10.8-.74-15.5-2.26-7.99-2.59-13.86-7.36-17-13.8-4.66-9.58-2.88-21.77,5.01-34.32,7.63-12.14,20.16-23.28,35.27-31.38,20.44-10.96,41.97-14.48,57.59-9.42,7.99,2.59,13.86,7.36,17,13.8,4.66,9.58,2.88,21.77-5.01,34.32-7.63,12.14-20.16,23.28-35.27,31.38-14.3,7.66-29.12,11.69-42.09,11.69Zm50.04-88.26c-12.17,0-26.39,3.84-39.82,11.04-29.19,15.64-46.27,42.06-38.08,58.9,2.51,5.15,7.33,9.01,13.95,11.15,14.1,4.56,34.62,1.09,53.57-9.06,29.19-15.64,46.27-42.06,38.08-58.9-2.51-5.15-7.33-9.01-13.95-11.15-4.1-1.33-8.75-1.98-13.74-1.98Z"/>
      </g>
      <g>
        <path class="cls-2" d="M1652.4,1938.01c-6.16-3.58-8.74-17.55,19.97-34.22,28.71-16.67,46.14-15.26,46.14-2.36-5.11,15.43-48.71,39.82-66.11,36.58Z"/>
        <path class="cls-12" d="M1644.92,1932.75c0-4.81,2.55-17.48,26.16-31.19,19.71-11.44,36.32-15.36,45.58-10.75,7.1,4.05,1.85,10.61,1.85,10.61-.34-2.82-1.7-4.78-4.14-6-5.85-2.91-19.61-1.66-40.7,10.59-21.89,12.71-23.59,23.68-23.59,26.73,0,2.41,.89,4.42,2.32,5.26,0,0-7.11,1.83-7.48-5.26Z"/>
      </g>
    </g>
  </g>
  <g>
    <ellipse class="cls-4" cx="1603.91" cy="1818.91" rx="38.68" ry="59.08" transform="translate(-401.92 3181.86) rotate(-82.79)"/>
    <path class="cls-2" d="M1634.54,1787.98c2.84,10.54,1.1,23.08-.65,33.62-5.43,21.72-22.85,29.96-44.62,33.86,3.17,.76,6.42,1.41,9.79,1.83,32.37,4.1,60.79-9.77,63.47-30.96,1.9-15-9.63-29.61-27.98-38.35Z"/>
    <path class="cls-12" d="M1610.37,1860.59c-3.83,0-7.72-.25-11.64-.74-33.73-4.27-58.84-26.1-55.99-48.67,1.41-11.14,9.23-20.72,22.03-26.96,12.43-6.07,28.17-8.28,44.32-6.24,16.15,2.04,30.84,8.11,41.37,17.08,10.84,9.23,16.03,20.45,14.62,31.59-1.41,11.14-9.23,20.72-22.03,26.96-9.42,4.59-20.73,6.98-32.68,6.98Zm-12.95-78.2c-11.16,0-21.68,2.21-30.39,6.46-11.18,5.45-17.99,13.61-19.17,22.97-2.5,19.75,20.62,39,51.52,42.91,15.16,1.92,29.87-.13,41.41-5.76,11.18-5.45,17.99-13.61,19.17-22.97h0c1.18-9.36-3.38-18.96-12.85-27.02-9.78-8.33-23.51-13.97-38.68-15.89-3.71-.47-7.4-.7-11.02-.7Z"/>
  </g>
  <g>
    <path class="cls-2" d="M1045.28,1909.21c44.54-39.89,141.17-107.17,253.49-122.63,112.32-15.46,210.22,13.4,252.46,22.67,42.25,9.27,234.95,66.98,351.39,40.19,116.44-26.79,182.39-106.76,182.39-106.76,0,0-333.87-11.75-503.9-35.45-170.03-23.7-247.31-16.7-357.57,35.45-110.26,52.14-178.27,166.53-178.27,166.53Z"/>
    <path class="cls-12" d="M1034.47,1922.36l8.6-14.46c.17-.29,17.48-29.2,48.06-64.09,28.25-32.22,73.96-76.32,131.32-103.45,109.9-51.97,187.07-59.64,359.03-35.67,167.95,23.41,500.3,35.3,503.63,35.42l5.22,.18-3.32,4.03c-.17,.2-17.04,20.5-47.97,43.75-28.52,21.45-75.24,49.94-135.83,63.88-21.73,5-46.12,7.07-71.68,7.07-93.38,0-202.5-27.62-255.65-41.07-10.86-2.75-19.43-4.92-25.18-6.18-5-1.1-10.66-2.44-17.23-4-47.43-11.25-135.73-32.21-234.34-18.64-101,13.9-196.46,72.13-252.13,121.99l-12.53,11.22Zm394.65-225.49c-77.4,0-134.21,14.93-204.46,48.15-56.56,26.75-101.72,70.33-129.65,102.19-16.85,19.22-29.61,36.58-37.64,48.24,57.44-47.38,146.84-98.44,241.06-111.41,99.57-13.7,188.47,7.39,236.23,18.73,6.54,1.55,12.18,2.89,17.14,3.98,5.83,1.28,14.44,3.46,25.34,6.22,67.34,17.04,225.04,56.96,324.92,33.98,59.64-13.72,105.66-41.77,133.76-62.87,22.4-16.82,37.28-32.03,43.67-39-44.01-1.65-342.37-13.47-498.71-35.27-60.5-8.43-109.18-12.93-151.65-12.93Z"/>
  </g>
  <g>
    <ellipse class="cls-4" cx="2760.32" cy="2303.88" rx="45.71" ry="69.58" transform="translate(-694.77 3298.66) rotate(-55.91)"/>
    <path class="cls-2" d="M2807.83,2286.04c9.84,47.56-45.09,72.19-89.7,41.76,4.81,5.01,10.34,9.72,16.57,13.94,31.82,21.54,69.09,22.05,83.24,1.14,10.28-15.2,5.47-37.51-10.11-56.84Z"/>
    <path class="cls-12" d="M2783.77,2360.73c-15.8,0-33.92-5.63-50.51-16.86-15.8-10.7-27.94-24.83-34.17-39.81-6.39-15.34-5.86-29.77,1.48-40.63,7.35-10.85,20.56-16.74,37.16-16.48,16.22,.22,33.85,6.23,49.66,16.93,32.95,22.3,47.61,58.38,32.69,80.43l-2.13-1.44,2.13,1.44c-7.41,10.94-20.73,16.41-36.31,16.41Zm-46.97-108.62c-14.42,0-25.75,5.03-31.97,14.22-6.34,9.37-6.69,22.07-1,35.76,5.85,14.06,17.33,27.38,32.31,37.52,30.6,20.7,66.33,21.53,79.67,1.83h0c13.33-19.7-.72-52.57-31.31-73.28-14.98-10.14-31.61-15.83-46.84-16.04-.29,0-.57,0-.85,0Z"/>
  </g>
  <g>
    <ellipse class="cls-4" cx="2952.67" cy="2385.63" rx="45.71" ry="61.59" transform="translate(232.24 5033.04) rotate(-83.16)"/>
    <path class="cls-2" d="M2980.73,2346.36c19.76,36.01,10.05,74.32-41.7,83.21,2.67,.59,5.39,1.11,8.19,1.45,33.77,4.05,63.59-12.98,66.6-38.05,2.28-19.02-11.54-37.18-33.09-46.61Z"/>
    <path class="cls-12" d="M2957.18,2434.2c-3.39,0-6.82-.2-10.26-.62-16.88-2.03-32.19-8.83-43.11-19.17-11.13-10.53-16.4-23.47-14.85-36.42,1.55-12.95,9.74-24.27,23.04-31.87,13.06-7.46,29.54-10.45,46.42-8.43,16.88,2.03,32.19,8.83,43.11,19.17,11.13,10.53,16.4,23.47,14.85,36.42-1.55,12.95-9.74,24.27-23.04,31.88-10.39,5.94-22.95,9.04-36.16,9.04Zm-9.03-91.98c-12.31,0-23.98,2.87-33.59,8.37-11.85,6.77-19.13,16.72-20.48,28.01-1.36,11.29,3.36,22.68,13.27,32.07,10.12,9.58,24.39,15.9,40.18,17.8,15.79,1.89,31.15-.87,43.25-7.78,11.85-6.77,19.13-16.72,20.48-28.01,1.36-11.29-3.36-22.68-13.27-32.07-10.12-9.58-24.39-15.9-40.18-17.8-3.25-.39-6.48-.58-9.66-.58Z"/>
  </g>
  <g>
    <ellipse class="cls-4" cx="3161.51" cy="2404.22" rx="45.71" ry="61.59" transform="translate(267.86 5124.91) rotate(-80.49)"/>
    <path class="cls-2" d="M3189.69,2365.52c19.3,31.85,9.49,77.75-41.28,82.64,1.82,.43,3.66,.83,5.55,1.14,33.55,5.62,64.13-10.01,68.3-34.91,3.25-19.39-10.51-38.63-32.57-48.88Z"/>
    <path class="cls-12" d="M3167.49,2453.01c-4.56,0-9.23-.38-13.96-1.17-34.9-5.85-59.71-31.97-55.31-58.23,2.16-12.87,10.86-23.79,24.5-30.77,13.39-6.84,30-9.06,46.76-6.25,16.77,2.81,31.74,10.32,42.17,21.16,10.63,11.04,15.29,24.21,13.13,37.07h0c-3.8,22.7-28.22,38.19-57.31,38.19Zm-12.11-92.46c-10.97,0-21.42,2.34-30.3,6.88-12.16,6.21-19.89,15.81-21.77,27.03-3.93,23.46,18.98,46.92,51.08,52.3,32.09,5.38,61.4-9.33,65.33-32.79,1.88-11.22-2.3-22.81-11.76-32.65-9.67-10.04-23.63-17.02-39.31-19.65-4.46-.75-8.91-1.12-13.27-1.12Z"/>
  </g>
  <g>
    <ellipse class="cls-4" cx="3337.38" cy="2516.16" rx="45.71" ry="61.59" transform="translate(-751.85 3380.66) rotate(-48.95)"/>
    <path class="cls-2" d="M3381.4,2497.57c2.67,41.52-35.1,67.12-81.46,45.67,2.28,2.56,4.73,5.05,7.42,7.4,25.65,22.34,59.89,25.01,76.47,5.97,12.98-14.91,11.23-38.69-2.43-59.04Z"/>
    <path class="cls-12" d="M3353.29,2571.83c-15.62,0-33-6.52-47.62-19.25-26.68-23.24-34.17-58.48-16.68-78.56,17.49-20.08,53.42-17.51,80.1,5.72,26.68,23.24,34.17,58.48,16.68,78.56h0c-7.91,9.08-19.59,13.53-32.48,13.53Zm-31.82-106.25c-11.42,0-21.68,3.88-28.6,11.82-15.62,17.94-8.36,49.92,16.18,71.29,24.54,21.37,57.22,24.16,72.84,6.22,15.62-17.94,8.36-49.92-16.18-71.29-13.67-11.91-29.87-18.05-44.24-18.05Z"/>
  </g>
  <g>
    <path class="cls-4" d="M2575.52,1941.16c-2.06,6.18,30.98,255.11,197.85,375.09,137.19,98.64,279.87,55.01,412.73,102.59,132.86,47.58,212.77,127.71,225.66,166.93-38.64-129.83-92.74-193.2-293.67-292.12-200.93-98.92-381.77-233.55-437.41-352.48-91.19-10.74-105.17,0-105.17,0Z"/>
    <path class="cls-2" d="M2575.52,1941.16c-1.55,4.64,16.65,145.82,96.25,266.73,52.95-26.01,107.54,22.93,149.08,53.18,149.69,109.01,227.31,82.94,360.17,130.52,132.86,47.58,217.86,154.95,230.75,194.17-38.64-129.83-92.74-193.2-293.67-292.12-200.93-98.92-381.77-233.55-437.41-352.48-91.19-10.74-105.17,0-105.17,0Z"/>
    <path class="cls-12" d="M3409.32,2586.56c-12.78-38.88-92.83-118.3-224.08-165.31-51.78-18.54-103.97-23.05-159.23-27.83-83.65-7.23-170.16-14.71-254.14-75.09-87.34-62.8-136.95-160.51-163.19-231.42-28.42-76.81-36.99-142.42-35.6-146.58l.25-.75,.62-.48c1.51-1.17,17.39-11.08,107.04-.52l1.42,.17,.61,1.3c51.18,109.4,218.33,243.99,436.22,351.26,103.24,50.82,165.56,91.19,208.4,134.98,40.19,41.08,65.28,87.06,86.6,158.72l-4.92,1.54Zm-831.32-643.8c.18,9.72,8.95,71.3,36.32,144.53,25.98,69.51,74.93,165.29,160.56,226.86,82.83,59.55,168.61,66.97,251.57,74.14,53.16,4.59,108.12,9.35,160.53,28.11,75.58,27.07,127.95,62.26,158.57,87.02,23.69,19.15,42.96,39.01,55.38,56.68-37.32-109.65-93.91-170.6-283.96-264.16-103.09-50.75-197.72-109.2-273.65-169.02-80.78-63.64-137.57-127.02-164.35-183.38-75.6-8.8-96.57-2.69-100.97-.79Z"/>
  </g>
  <g>
    <g>
      <ellipse class="cls-4" cx="1410.41" cy="1223.27" rx="36.75" ry="48.43" transform="translate(-295.79 465.3) rotate(-16.98)"/>
      <path class="cls-2" d="M1374.13,1229.74c.33,1.42,.69,2.84,1.12,4.26,7.81,25.58,29.88,41.51,49.3,35.58,19.16-5.85,28.54-30.82,21.26-56.07-2.81,39.96-44.85,50.5-71.69,16.22Z"/>
      <path class="cls-12" d="M1416.17,1273.41c-7.45,0-15.07-2.62-22.12-7.71-9.76-7.05-17.31-18.04-21.25-30.95-3.94-12.91-3.82-26.24,.34-37.54,4.25-11.55,12.2-19.62,22.38-22.73,10.18-3.11,21.28-.85,31.26,6.35,9.76,7.05,17.31,18.04,21.25,30.95h0c8.22,26.9-1.97,53.94-22.72,60.27-2.98,.91-6.05,1.36-9.14,1.36Zm-11.55-95.13c-2.58,0-5.13,.37-7.61,1.13-8.6,2.63-15.36,9.58-19.05,19.58-3.77,10.25-3.86,22.42-.25,34.25,3.62,11.84,10.48,21.88,19.34,28.27,8.64,6.24,18.14,8.23,26.74,5.6,18.02-5.51,26.68-29.66,19.29-53.84h0c-3.62-11.84-10.48-21.88-19.34-28.27-6.15-4.44-12.74-6.73-19.13-6.73Z"/>
    </g>
    <g>
      <ellipse class="cls-4" cx="1488.43" cy="1429.64" rx="45.9" ry="70.52" transform="translate(-463.42 759.13) rotate(-24.89)"/>
      <path class="cls-2" d="M1444.72,1444.07c.66,1.63,1.32,3.26,2.07,4.89,16.39,35.33,48.32,55.33,71.31,44.66,20.43-9.47,26.89-39.96,16.6-71.41,2.95,45.02-36.53,82.39-89.99,21.87Z"/>
      <path class="cls-12" d="M1504.93,1499.02c-21.84,0-46.65-19.19-60.48-48.99-16.96-36.56-11.03-75.46,13.21-86.71,11.94-5.54,26.35-3.68,40.59,5.23,13.89,8.7,26.02,23.14,34.15,40.68h0c16.96,36.56,11.04,75.46-13.21,86.71-4.49,2.08-9.3,3.07-14.26,3.07Zm-32.82-133.66c-4.34,0-8.46,.87-12.27,2.64-21.67,10.05-26.47,45.88-10.71,79.87,15.77,33.99,46.22,53.45,67.89,43.41,21.67-10.05,26.47-45.88,10.71-79.87h0c-7.72-16.64-19.16-30.31-32.21-38.48-8.01-5.02-16.01-7.57-23.41-7.57Z"/>
    </g>
    <g>
      <path class="cls-4" d="M1376.06,1117.02c46.37,63.65,57.71,194.52,136.02,339.3,78.32,144.78,208.15,220,208.15,220l243.19-5.58c-445.32-177.14-436.92-425.16-587.37-553.73Z"/>
      <path class="cls-2" d="M1376.06,1117.02c46.37,63.65,52.05,169.98,142.24,307.68,65.41,99.86,139.66,127.83,140.16,206.92,35.77,29.64,61.78,44.71,61.78,44.71l243.19-5.58c-445.32-177.14-436.92-425.16-587.37-553.73Z"/>
      <path class="cls-12" d="M1719.57,1678.92l-.63-.36c-.33-.19-33.16-19.35-75.11-56-38.71-33.81-93.38-89.88-134.02-165.01-41.45-76.62-64.6-150.69-83.21-210.21-16.62-53.17-30.98-99.08-52.63-128.8l-12.9-17.71,16.66,14.24c48.05,41.06,79.23,92.93,115.32,153,74.89,124.6,168.09,279.68,471.32,400.3l11.76,4.68-256.57,5.88Zm-331.02-547.06c16.59,29.56,28.99,69.21,42.97,113.94,18.54,59.31,41.62,133.11,82.83,209.3,40.25,74.4,94.42,129.97,132.77,163.49,38.45,33.6,69.12,52.36,73.8,55.15l229.93-5.27c-130.06-53.03-231.89-116.72-311.03-194.49-70.87-69.65-113.54-140.63-151.18-203.26-32.17-53.52-60.4-100.5-100.09-138.85Z"/>
    </g>
    <g>
      <path class="cls-7" d="M2124.98,1456.32s-59.47,81.77-191.78,76.08c-119.05-5.12-212.34-99.72-260.26-160.75-47.91-61.03-140.74-226.98-230.93-314.64-73.16-71.1-208.93-105.62-221.93-66.12-7.86,23.87,76.64,21.81,160.74,138.89,59.21,82.43,71.49,201.34,209.58,351.53,115.93,126.09,257.71,174.36,354.58,189.44,164.99-8.89,238.03-185.37,180-214.43Z"/>
      <path class="cls-1" d="M1340.95,1002.71c26.12,12.29,61.97,31.75,89.62,57.36,27.65,25.61,59.41,65.55,71.7,89.11-31.24-34.71-51.41-59.66-80.66-85.78-40.76-36.39-80.66-60.69-80.66-60.69Z"/>
      <path class="cls-1" d="M1775.62,1482.82c25.61,18.2,89.76,63.11,175.27,59.81,76.54-2.95,118.81-33.23,118.81-33.23-18.44,20.29-54.2,39.89-118.86,42.83-124.91,5.68-175.23-69.4-175.23-69.4Z"/>
      <path class="cls-5" d="M2124.98,1456.32c80.44,81.15-117.24,146.96-207.37,154.28-90.13,7.32-193.4-34.71-309.32-160.81-138.08-150.19-123.42-234.3-213.3-339.54-93.62-109.62-149.03-110.62-174.91-119.36-7.86,23.87,76.64,21.81,160.74,138.89,59.21,82.42,71.49,201.34,209.58,351.53,115.93,126.09,257.71,174.36,354.58,189.44,164.99-8.89,238.03-185.37,180-214.43Z"/>
      <path class="cls-12" d="M1944.84,1673.34l-.27-.04c-78.96-12.29-230.22-53.35-356.08-190.24-88.61-96.38-126.1-181.08-156.22-249.14-17.37-39.24-32.37-73.14-53.55-102.62-51.73-72.01-103.09-98.37-133.78-114.12-19.33-9.92-31-15.91-27.32-27.08,2.67-8.1,9.74-13.62,21.01-16.39,43.87-10.77,145.17,23.16,205.16,81.47,60.7,58.99,121.89,152.27,171.06,227.21,23.82,36.31,44.4,67.67,60.1,87.68,45.11,57.46,138.66,154.63,258.34,159.77,67.68,2.91,115.68-17.71,144.02-35.52,30.63-19.24,45.41-39.31,45.56-39.51l1.28-1.77,1.95,.98c18.05,9.04,25.11,32.25,18.89,62.1-7.13,34.26-30.14,71.65-61.53,100.01-26.71,24.13-72.39,53.63-138.38,57.19l-.27,.02Zm-687.36-696.49c-6.62,0-12.54,.61-17.61,1.85-9.43,2.32-15.27,6.69-17.35,13-2.21,6.71,6,11.25,24.78,20.89,31.1,15.96,83.15,42.67,135.61,115.69,21.49,29.92,36.6,64.04,54.08,103.55,29.97,67.72,67.27,151.99,155.3,247.74,124.65,135.58,274.44,176.36,352.81,188.6,64.34-3.54,108.88-32.31,134.94-55.85,30.62-27.66,53.02-64.01,59.94-97.24,5.48-26.33,.13-46.83-14.31-55.43-4.39,5.48-19.14,22.42-45.6,39.04-28.96,18.2-77.97,39.26-146.99,36.3-121.74-5.23-216.51-103.58-262.17-161.73-15.84-20.18-36.47-51.62-60.36-88.04-49.03-74.74-110.05-167.75-170.34-226.34-27.29-26.53-65.2-49.76-106.73-65.42-28.65-10.8-55.62-16.59-76.01-16.59Z"/>
    </g>
  </g>
  <g>
    <path class="cls-7" d="M2737.76,1190.49c-38.64-32.46-166.82-83.89-254.92-71.53-88.1,12.36-154.64,76.14-154.64,76.14-32.97-28.85-134.65-59.77-211.25,42.25,112.32,13.13-51.52,218.97-9.7,309.75-43.28,55.64-140.65,100.47-241.12,108.19-100.47,7.73-333.45-86.14-533.24-64.85-165.03,17.58-279.76,140.58-323.04,217.87-43.28,77.28-46,163.76-23.18,166.93,27.92,3.88,90.86-115.63,168.47-162.29,136.4-82.01,224.07-76.56,309.12-71.1,118.9,7.64,188.51,46.01,307.58,51.01,169.92,7.13,291.52-36.15,291.52-36.15l259.68,189.61,314.29,52.55c51.52,80.38,115.53,177.91,208.21,251.43,114.32,90.68,221.53,88.16,308.08,120.62,86.55,32.46,173.08,83.41,214.84,156.11,39.34,68.49,64.92,122.1,83.46,126.74,18.55,4.64,48.24-100.51-42.78-227.26-81.43-113.39-328.17-179.24-411.63-248.79-83.46-69.55-110.65-179.26-85.01-244.21,37.05-93.85,88.01-126.31,126.7-221.11,40.37-98.92,14.91-216.76-25.28-273.59l-276.19-248.32Z"/>
    <path class="cls-1" d="M1054.16,1773.48c26.63-38.43,102.94-122.3,216.12-154.69,123.48-35.34,248.02,.77,248.02,.77-72.87-3.07-167.91-11.91-254.16,16.76-120.35,40-209.97,137.16-209.97,137.16Z"/>
    <path class="cls-1" d="M3274.99,2338.37s76.71,29.24,121.69,89.14c45.19,60.17,48.84,98.01,48.84,98.01-48.65-93.57-91.67-141.35-170.54-187.15Z"/>
    <path class="cls-1" d="M2940.82,1435.29c-11-76.91-87.18-157.95-195.11-165.25-56.01-3.79-108.89,9.67-152.23,39.71-31.37,21.74-68.37,60.79-75.2,98.09,0,0-4.44-24.69,23.46-64.44,12.49-17.46,28.37-33.93,46.75-48.1,46.2-35.6,103.15-52.42,160.36-47.38,75,6.61,120.92,40.75,146.23,68.23,14.43,15.67,26.17,33.5,34.73,52.36,17.08,38.66,10.99,66.79,10.99,66.79Z"/>
    <path class="cls-1" d="M2312.44,1212.14c2.23,1.76-69.5,61.49-116.51,179.07,0,0,116.79-223.75,283.35-251.38,95.9-15.91,219.84,18.2,258.48,50.66-38.64-32.46-166.82-83.89-254.92-71.53-88.1,12.37-154.64,76.14-154.64,76.14-32.98-28.85-134.65-59.77-211.25,42.25,88.46-75.62,158.28-54.47,195.48-25.21Z"/>
    <g>
      <path class="cls-5" d="M3385.36,2502.21c-43.01-71.96-137.28-132.69-223.84-165.14-86.55-32.46-187.91-42.27-296.86-125.23-94.12-71.68-156.52-245.82-244.17-289.48l-297.43,23.95,314.29,52.55c51.52,80.38,115.53,177.91,208.21,251.43,114.32,90.68,221.53,88.16,308.08,120.62,86.55,32.46,173.08,83.41,214.84,156.11,39.34,68.49,64.92,122.1,83.46,126.74,5.96,1.49,13.07-8.37,16.95-26.64-25.81-4.15-47.96-65.37-83.55-124.92Z"/>
      <path class="cls-5" d="M2989.46,1664.45c-34.62,72.15-98.35,114.45-122.26,215.53-20.59,87.06,19.35,199.81,107.95,276.75-72.05-62.57-85.8-164.48-62.61-223.22,37.05-93.85,88.01-126.31,126.7-221.11,40.37-98.92,14.91-216.76-25.28-273.59,19.06,79.61,15.99,141.28-24.49,225.65Z"/>
      <path class="cls-5" d="M1771.39,1753.23c-100.63-2.68-185.05-41.78-303.95-49.42-85.06-5.47-206.39,4.1-326.22,76.01-90.95,54.58-135.79,171.62-168.61,162.14,.66,19.42,5.6,32.11,14.07,33.29,27.92,3.88,90.86-115.63,168.47-162.29,136.4-82.01,224.07-76.56,309.12-71.1,118.9,7.64,188.51,46.01,307.58,51.01,169.92,7.13,291.52-36.15,291.52-36.15l259.68,189.61-245.72-208.73c-91.1-8.8-151.44,19.77-305.94,15.65Z"/>
    </g>
    <path class="cls-12" d="M3453.12,2656.49c-.69,0-1.3-.09-1.8-.22-15.69-3.92-34.03-36.83-61.8-86.65-7.33-13.16-14.92-26.76-23.27-41.31-45.33-78.91-141.13-127.84-213.51-154.98-26.1-9.79-54.1-16.38-83.76-23.36-67.93-15.99-144.92-34.12-225.02-97.65-95.62-75.85-160.64-176.96-208.17-251.1l-313.77-52.47-.49-.36-258.59-188.81c-12.51,4.21-113.65,36.64-253.6,36.64-12.25,0-24.78-.25-37.59-.78-61.61-2.59-110.96-14.29-158.68-25.61-45.01-10.67-91.55-21.71-148.96-25.4-84.38-5.42-171.63-11.03-307.63,70.74-40.71,24.48-77.61,69.5-107.25,105.68-26.98,32.93-46.77,57.07-61.2,57.07-.58,0-1.14-.04-1.7-.11-3.16-.44-7.64-2.42-11.09-9.36-12.9-25.95-2.77-98.61,32.38-161.38,40.82-72.89,155.2-201.08,325.01-219.17,119.63-12.75,252.2,15.89,358.73,38.89,72.14,15.58,134.45,29.04,174.59,25.95,96.92-7.46,194.6-50.95,238.33-105.99-17.77-41.06,3.47-102.36,24.02-161.67,18.41-53.14,35.8-103.33,20.05-128.42-5.94-9.46-16.3-14.94-31.67-16.73l-4.45-.52,2.69-3.58c31.25-41.62,70.74-66.01,114.21-70.55,41.28-4.31,78.99,9.94,99.03,26.41,11.05-9.96,74.22-64.01,154.35-75.25,39.57-5.56,92.11,.86,147.95,18.06,16.3,5.02,32.21,10.78,46.88,16.89,44.13,18.24,60.44,39.13,60.44,39.13-20.07-16.86-62.79-36.91-108.84-51.1-55.13-16.98-106.88-23.33-145.72-17.88-86.28,12.11-152.55,74.81-153.21,75.44l-1.7,1.63-1.78-1.55c-18.69-16.35-55.88-30.93-96.86-26.66-40.79,4.26-78.04,26.72-107.97,65.04,14.63,2.51,24.81,8.58,31.02,18.48,17.06,27.19-.72,78.51-19.54,132.85-20.45,59.04-41.6,120.1-23.56,159.27l.66,1.42-.96,1.24c-21.65,27.83-56.26,53.02-100.09,72.83-44.23,19.99-93.63,32.56-142.87,36.35-40.89,3.14-103.53-10.39-176.07-26.05-106.16-22.93-238.29-51.47-357.1-38.81-167.71,17.87-280.72,144.53-321.06,216.56-36.13,64.52-43.14,134.68-32.26,156.57,1.97,3.95,4.38,6.16,7.18,6.55,11.71,1.63,33.26-24.67,58.21-55.12,29.9-36.48,67.11-81.89,108.58-106.83,137.38-82.59,225.45-76.93,310.62-71.46,57.84,3.72,104.6,14.81,149.82,25.53,47.49,11.26,96.59,22.91,157.71,25.47,167.49,7.04,289.34-35.57,290.55-36l1.28-.46,260.28,190.05,314.82,52.64,.62,.96c47.39,73.92,112.28,175.16,207.65,250.8,79.2,62.82,155.6,80.81,223,96.68,29.82,7.02,57.98,13.65,84.38,23.55,73.18,27.44,170.08,76.99,216.17,157.24,8.37,14.57,15.96,28.19,23.3,41.36,25.16,45.13,45.03,80.78,58.55,84.16,1.72,.43,4.07-1.27,6.3-4.55,13.66-20.12,26.76-109.32-51.8-218.71-49.29-68.63-160.17-119.96-258-165.25-61.91-28.66-120.38-55.73-153.18-83.06-39.08-32.56-68.99-76.97-84.23-125.03-14.08-44.41-14.63-88.91-1.53-122.1,18.8-47.61,41.57-80.12,63.6-111.55,21.65-30.9,44.05-62.86,63.12-109.59,39.46-96.69,17.66-212.62-22.89-272.62,0,0,20.34,17.9,35.81,68.19,4.73,16.72,8.29,34.42,10.45,52.47,4.58,38.2,5.07,95.91-18.6,153.9-19.29,47.26-41.85,79.46-63.67,110.6-22.86,32.62-44.45,63.44-63.02,110.49-12.68,32.11-12.08,75.36,1.65,118.65,14.94,47.14,44.28,90.69,82.61,122.63,32.28,26.9,90.46,53.83,152.05,82.35,98.41,45.56,209.95,97.19,260.02,166.92,42.37,59,56.61,110.49,61.09,143.3,5.69,41.62-1.41,69.82-9.21,81.31-3.81,5.61-7.49,6.87-10.02,6.87Z"/>
  </g>
  <path class="cls-12" d="M2195.93,1391.21s8.72-35.39,36.2-78.42c28.1-44.65,62.77-89.19,94.29-119.54l3.57,3.71c-49.72,47.88-107.36,131.39-134.06,194.25Z"/>
  <path class="cls-12" d="M2940.82,1435.29c-2.92-82.4-69.95-171.46-192.41-182.24-55.92-4.92-111.6,11.53-156.76,46.33-38.42,29.6-66.53,71.16-73.36,108.46,0,0-4.44-24.69,23.46-64.44,12.49-17.46,28.37-33.93,46.75-48.1,46.2-35.6,103.15-52.42,160.36-47.38,75,6.61,120.92,40.75,146.23,68.23,14.43,15.67,26.17,33.5,34.73,52.36,17.08,38.66,10.99,66.79,10.99,66.79Z"/>
  <g>
    <ellipse class="cls-5" cx="2749.11" cy="1523.26" rx="211.62" ry="148.6" transform="translate(420.37 3633.92) rotate(-71.18)"/>
    <ellipse cx="2743.66" cy="1539.23" rx="194.75" ry="148.6" transform="translate(401.56 3639.59) rotate(-71.18)"/>
    <ellipse class="cls-3" cx="2740.29" cy="1549.13" rx="184.29" ry="144.77" transform="translate(389.91 3643.1) rotate(-71.18)"/>
    <path class="cls-8" d="M2877.31,1595.84c-32.84,96.34-120.81,153.52-196.48,127.73-75.68-25.8-110.41-124.8-77.57-221.14,1.89,195.35,162.94,224.78,274.05,93.41Z"/>
    <path d="M2718.54,1732.37c-13.11,0-26.04-2.11-38.54-6.36-76.9-26.21-112.42-126.88-79.18-224.41,16.07-47.14,45.62-86.56,83.21-110.99,37.79-24.57,79.18-31.08,116.54-18.34,37.37,12.74,66.16,43.17,81.08,85.7,14.84,42.31,14.17,91.57-1.9,138.71l-2.44-.83,2.44,.83c-16.07,47.14-45.62,86.56-83.21,110.99-25.16,16.35-51.91,24.71-78.01,24.71Zm43.52-361.32c-25.12,0-50.91,8.07-75.22,23.87-36.63,23.81-65.45,62.29-81.14,108.34-32.33,94.84,1.75,192.58,75.96,217.87,35.84,12.21,75.64,5.9,112.07-17.79,36.63-23.81,65.45-62.29,81.14-108.34,15.7-46.05,16.38-94.11,1.92-135.34-14.38-41.01-42.04-70.32-77.88-82.53-11.93-4.07-24.31-6.08-36.86-6.08Z"/>
  </g>
  <g>
    <ellipse class="cls-11" cx="2760.96" cy="1580.09" rx="83.69" ry="63.07" transform="translate(374.61 3683.64) rotate(-71.18)"/>
    <path class="cls-6" d="M2820.66,1600.44c-14.91,43.75-53.73,70.1-86.7,58.87-32.97-11.24-47.61-55.81-32.7-99.56,5.76,82.21,72.62,90.81,119.4,40.7Z"/>
    <ellipse cx="2758.04" cy="1593.99" rx="50.27" ry="44.54" transform="translate(197.81 3489.47) rotate(-66.54)"/>
    <path class="cls-3" d="M2776.08,1547.84c-4.39,10.11-16.14,14.74-26.24,10.36-10.11-4.39-14.74-16.14-10.36-26.24,4.39-10.11,16.14-14.75,26.24-10.36,10.11,4.39,14.75,16.14,10.36,26.24Z"/>
    <path class="cls-3" d="M2774.48,1633.25c-1.86,4.28-6.83,6.24-11.1,4.38-4.28-1.86-6.24-6.83-4.38-11.1,1.86-4.28,6.83-6.24,11.1-4.38s6.24,6.83,4.38,11.1Z"/>
    <path class="cls-9" d="M2749.61,1664.45c-5.57,0-11.1-.88-16.48-2.71-34.26-11.68-49.65-57.81-34.31-102.83,15.35-45.02,55.7-72.16,89.97-60.47,34.26,11.68,49.65,57.81,34.31,102.83h0c-12.93,37.95-43.64,63.19-73.49,63.19Zm22.61-163.59c-27.66,0-56.32,23.9-68.53,59.71-14.43,42.33-.48,85.53,31.09,96.29,31.58,10.76,69-14.93,83.43-57.26,14.43-42.33,.48-85.53-31.09-96.29-4.86-1.66-9.87-2.45-14.91-2.45Z"/>
  </g>
  <g>
    <ellipse class="cls-5" cx="2452.33" cy="1258.81" rx="51.01" ry="37.32" transform="translate(-204.36 1994) rotate(-42.64)"/>
    <ellipse class="cls-5" cx="2256.59" cy="1456.32" rx="31.43" ry="24.22" transform="translate(-260.14 2393.94) rotate(-53.27)"/>
    <ellipse class="cls-5" cx="2213.83" cy="1591.99" rx="41.73" ry="31.43" transform="translate(-511.97 1666.13) rotate(-37.28)"/>
    <ellipse class="cls-5" cx="2385.2" cy="1509.39" rx="30.69" ry="18.03" transform="translate(-113.57 2822.24) rotate(-60.04)"/>
    <ellipse class="cls-5" cx="2382.31" cy="1681.26" rx="52.04" ry="41.22" transform="translate(-460.43 2330) rotate(-48.07)"/>
    <ellipse class="cls-5" cx="2505.97" cy="1772.16" rx="30.91" ry="25.25" transform="translate(-316.47 2978.08) rotate(-58.4)"/>
    <ellipse class="cls-5" cx="2833.59" cy="1849.45" rx="46.37" ry="29.44" transform="translate(-98.11 3539.06) rotate(-63.09)"/>
  </g>
  <g>
    <g>
      <path class="cls-4" d="M101.04,1582.65c-48.1,14.33-120.35,61.18-92.09,133.86,29.05,74.71,143.11,74.35,256.27,92.74,109.92,17.86,301.93,70.07,337.99,112.32-3.09-77.28-11.95-167.85-159.72-256.59-173.12-103.95-342.44-82.34-342.44-82.34Z"/>
      <path class="cls-2" d="M2.8,1689.82c.58,8.46,2.53,17.36,6.15,26.69,29.05,74.71,143.11,74.35,256.27,92.74,109.92,17.86,301.93,70.07,337.99,112.32-.66-16.53-1.59-33.67-4.08-51.26-59.61-37.69-231.36-72.9-330.31-88.98-112.91-18.35-236.63-17.29-266.02-91.51Z"/>
      <path class="cls-12" d="M606.08,1928.91l-4.83-5.66c-34.35-40.24-222.21-92.89-336.45-111.45-20.25-3.29-40.66-6-60.39-8.61-45.6-6.05-88.68-11.76-123.53-23.7-39.52-13.54-63.14-33.25-74.33-62.04-9.28-23.86-8.7-46.75,1.72-68.03,17.69-36.13,60.63-59.88,92.03-69.23l.41-.09c.43-.06,43.38-5.36,106.93,2.18,58.62,6.96,147.34,26.57,237.16,80.5,66.68,40.04,110.87,83.76,135.11,133.67,20.98,43.2,24.28,85.45,25.86,125.02l.3,7.43ZM101.57,1585.18c-30.38,9.1-71.75,31.94-88.67,66.5-9.76,19.94-10.28,41.44-1.55,63.9,23.29,59.89,102.28,70.37,193.74,82.5,19.77,2.62,40.21,5.33,60.54,8.64,97.54,15.85,286.83,64.61,334.73,108.27-2.88-68.24-11.13-159.47-158.2-247.79-88.97-53.43-176.87-72.88-234.94-79.78-60.74-7.23-102.4-2.62-105.65-2.24Z"/>
    </g>
    <g>
      <g>
        <ellipse class="cls-4" cx="123.06" cy="1657.53" rx="34.27" ry="65.61" transform="translate(-1538.66 1692.83) rotate(-86.97)"/>
        <path class="cls-2" d="M175.49,1639c3.76,4.73,6.68,10.79,6.4,16.16-1,18.9-30.35,30.57-64.78,28.74-29.53-1.56-53.85-12.86-59.49-28.33,.55,18.28,28.42,34.32,63.64,36.18,36.18,1.91,66.33-11.86,67.33-30.76,.43-8.03-4.52-15.69-13.09-22Z"/>
        <path class="cls-12" d="M127.97,1694.51c-2.27,0-4.56-.06-6.86-.18-17.91-.95-34.59-5.5-46.97-12.83-12.9-7.63-19.71-17.42-19.17-27.57,1.09-20.63,31.86-35.22,70.03-33.19,38.18,2.02,67.23,19.77,66.14,40.4-.54,10.15-8.34,19.16-21.97,25.39-11.4,5.21-25.83,7.98-41.2,7.98Zm-9.57-68.8c-31.37,0-57.43,12.4-58.28,28.49-.43,8.14,5.48,16.26,16.65,22.86,11.68,6.91,27.53,11.22,44.62,12.12,17.09,.9,33.3-1.7,45.65-7.34,11.8-5.39,18.54-12.84,18.97-20.98,.91-17.16-27.15-33.18-61.27-34.98-2.13-.11-4.25-.17-6.34-.17Z"/>
      </g>
      <g>
        <path class="cls-2" d="M83.18,1661.78c-4.75-5.73,.93-18.17,35.71-17.4,34.78,.77,50.07,10.9,43.77,20.84-17.71,13.53-66.49,8.69-79.48-3.44Z"/>
        <path class="cls-12" d="M162.66,1665.22c.95-2.09,.82-4.05-.39-5.97-3.5-5.55-16.74-11.7-43.43-12.29-27.26-.59-33.99,7.62-35.4,10.16-.96,1.73-1.06,3.43-.26,4.66,0,0-6.6-1.38-4.25-7.17,2.26-4.07,10.69-13.47,40.01-12.81,24.77,.55,42.14,5.91,47.67,14.69,2.65,4.99-3.97,8.72-3.97,8.72Z"/>
      </g>
    </g>
    <g>
      <g>
        <ellipse class="cls-4" cx="290.33" cy="1678.75" rx="31.64" ry="60.57" transform="translate(-1410 1572.12) rotate(-76.6)"/>
        <path class="cls-2" d="M345.34,1676.02c.75,2.95,.88,5.89,.2,8.75-3.98,16.71-32.31,24.27-63.28,16.89-29.38-7-50.53-24.93-49.23-41.02-.69,1.3-1.28,2.64-1.62,4.07-4.05,17,19.05,37.06,51.59,44.82,32.54,7.75,62.2,.26,66.25-16.74,1.3-5.45-.22-11.2-3.91-16.77Z"/>
        <path class="cls-12" d="M308.09,1715.17c-8.21,0-16.93-1.05-25.69-3.14-16.13-3.84-30.56-10.77-40.61-19.5-10.5-9.13-15.08-19.22-12.89-28.42,2.19-9.2,10.83-16.14,24.32-19.55,12.91-3.26,28.9-2.94,45.04,.9,34.44,8.21,57.94,29.25,53.5,47.92-2.19,9.2-10.83,16.14-24.32,19.55-5.9,1.49-12.44,2.23-19.35,2.23Zm-35.52-67.69c-6.47,0-12.59,.69-18.09,2.08-11.54,2.92-18.84,8.51-20.57,15.75-1.73,7.24,2.27,15.53,11.26,23.33,9.44,8.2,23.08,14.72,38.42,18.38,15.34,3.65,30.46,3.98,42.58,.92,11.54-2.92,18.84-8.51,20.57-15.75,3.65-15.33-19.1-34.43-49.68-41.71-8.38-2-16.7-3-24.5-3Z"/>
      </g>
      <g>
        <path class="cls-2" d="M253.59,1675.91c-3.52-6.18,3.69-16.27,35.14-9.79,31.46,6.48,44.19,18.47,36.12,26.08-23.96,10.71-62.22-1.58-71.26-16.29Z"/>
        <path class="cls-12" d="M324.85,1692.2c1.17-1.68,1.37-3.42,.61-5.3-2.23-5.57-13.19-13.3-37.25-18.26-19.51-4.02-30.17-.94-33.64,3.28-1.12,1.36-1.47,2.81-.98,3.99,0,0-5.89-2.54-3-7.26,2.75-3.35,12.03-10.54,38.66-5.05,22.47,4.63,37.41,12.42,41,21.39,1.69,5.64-5.4,7.22-5.4,7.22Z"/>
      </g>
    </g>
    <g>
      <g>
        <ellipse class="cls-4" cx="302.4" cy="1766.37" rx="31.64" ry="60.57" transform="translate(-1488.32 1835.9) rotate(-82.51)"/>
        <path class="cls-2" d="M354.68,1755.58c1.83,3.53,2.66,7.19,2.18,10.84-2.18,16.62-28.76,27.94-60.19,23.81-28.96-3.81-51.97-19.59-53.61-34.86-.33,1.01-.58,2.05-.72,3.11-2.28,17.32,22.76,34.9,55.93,39.27,33.17,4.36,61.9-6.15,64.18-23.47,.84-6.43-2.08-12.88-7.77-18.69Z"/>
        <path class="cls-12" d="M313.15,1801.3c-4.96,0-10.06-.34-15.21-1.01-35.11-4.62-60.65-23.13-58.15-42.16,2.5-19.02,31.96-30.31,67.07-25.69,35.11,4.62,60.65,23.13,58.15,42.16-1.23,9.38-9.11,17.17-22.17,21.95-8.59,3.14-18.8,4.75-29.68,4.75Zm-21.15-64.69c-25.06,0-45.36,9-47.1,22.19-2.05,15.62,22.54,32.28,53.71,36.38,15.64,2.06,30.71,.82,42.45-3.47,11.18-4.09,17.87-10.4,18.84-17.79,2.05-15.62-22.54-32.28-53.71-36.38-4.83-.63-9.59-.94-14.19-.94Z"/>
      </g>
      <g>
        <path class="cls-2" d="M265.55,1767.32c-3.13-5.73,1.99-16.56,33.95-13.35,31.96,3.21,45.08,14.34,38.61,22.23-14.5,10.07-64.94,4.43-72.56-8.87Z"/>
        <path class="cls-12" d="M338.11,1776.19c.99-1.8,1.01-3.54,.06-5.34-2.79-5.32-14.49-11.87-38.94-14.32-19.82-1.99-30.11,2.17-33.13,6.72-.97,1.46-1.18,2.95-.56,4.07,0,0-6.7-1.25-3.73-6.92,2.39-3.61,10.88-11.72,37.94-9,22.82,2.29,38.49,8.51,42.98,17.05,2.76,7.19-4.62,7.74-4.62,7.74Z"/>
      </g>
    </g>
    <g>
      <g>
        <ellipse class="cls-4" cx="462.15" cy="1774.52" rx="31.64" ry="60.57" transform="translate(-1361.58 1583.48) rotate(-69.42)"/>
        <path class="cls-2" d="M517.3,1779.09c.11,2.43-.19,4.79-1.03,7.02-6.14,16.36-36.51,20.09-67.83,8.33-21.52-8.08-37.88-21.36-44.03-34.2,.7,15.36,19.57,33.74,46.61,43.89,31.32,11.76,61.68,8.03,67.83-8.33,1.92-5.12,1.24-10.87-1.56-16.71Z"/>
        <path class="cls-12" d="M486.12,1813.58c-11.22,0-23.7-2.41-36-7.03-15.53-5.83-28.97-14.5-37.85-24.42-9.28-10.37-12.56-20.95-9.24-29.8,3.32-8.85,12.76-14.67,26.57-16.36,13.22-1.63,29.04,.69,44.57,6.52,15.53,5.83,28.97,14.5,37.85,24.42,9.28,10.37,12.56,20.95,9.24,29.8h0c-3.32,8.85-12.76,14.66-26.57,16.36-2.75,.34-5.62,.51-8.58,.51Zm-47.91-72.97c-2.75,0-5.42,.16-7.98,.47-11.81,1.45-19.76,6.09-22.37,13.06-2.62,6.97,.31,15.69,8.25,24.56,8.34,9.31,21.06,17.49,35.83,23.04,14.76,5.54,29.73,7.75,42.13,6.23,11.81-1.45,19.76-6.09,22.37-13.06h0c2.62-6.97-.31-15.69-8.25-24.56-8.34-9.31-21.06-17.49-35.83-23.04-11.72-4.4-23.57-6.7-34.16-6.7Z"/>
      </g>
      <g>
        <path class="cls-2" d="M426.05,1767.1c-1.75-6.29,5.69-15.68,36.09-5.32,30.4,10.36,39.9,22.23,32.58,30.39-15.03,9.13-63.29-10.14-68.67-25.07Z"/>
        <path class="cls-12" d="M494.71,1792.17c1.37-1.53,1.78-3.22,1.27-5.19-1.52-5.81-11.43-14.84-34.68-22.77-18.85-6.43-29.82-4.71-33.79-.95-1.28,1.21-1.81,2.6-1.47,3.84,0,0-5.96-3.06-2.07-7.58,3.15-2.98,13.25-8.95,38.99-.18,21.71,7.4,35.56,17,38,26.34,1.28,7.39-6.26,6.49-6.26,6.49Z"/>
      </g>
    </g>
    <g>
      <g>
        <ellipse class="cls-4" cx="444.56" cy="1840.24" rx="19.47" ry="44.22" transform="translate(-1448.57 1853.76) rotate(-76.83)"/>
        <path class="cls-2" d="M485.3,1841.14c.22,1.42,.14,2.81-.3,4.16-3.29,9.89-24.11,13.33-46.51,7.68-21.39-5.39-36.44-17.12-34.89-26.78-.84,.98-1.49,2.04-1.88,3.2-3.41,10.24,13,23.39,36.66,29.37,23.66,5.99,45.61,2.54,49.02-7.7,1.04-3.14,.21-6.54-2.1-9.94Z"/>
        <path class="cls-12" d="M460.68,1864.29c-7.04,0-14.86-.97-22.93-3.01-17.89-4.53-32.12-13.04-37.15-22.23-1.96-3.58-2.42-7.19-1.33-10.46,3.89-11.67,26.77-15.79,52.09-9.38,17.89,4.52,32.12,13.04,37.15,22.22,1.96,3.58,2.42,7.19,1.33,10.46h0c-2.65,7.95-14.12,12.4-29.17,12.4Zm-32.47-43c-13.14,0-22.29,3.66-24.04,8.93-.63,1.9-.31,4.04,.96,6.36,4.23,7.73,17.85,15.64,33.89,19.7,24.24,6.13,43.32,1.84,45.94-6.02h0c.63-1.9,.31-4.04-.96-6.36-4.23-7.73-17.85-15.64-33.89-19.7-8-2.02-15.43-2.91-21.9-2.91Z"/>
      </g>
      <g>
        <path class="cls-2" d="M418.28,1836.56c-1.69-3.78,2.54-9.27,25.44-4.1,22.9,5.17,30.23,11.3,25.42,16.57-12.21,5.32-44.85-2.94-50.86-12.47Z"/>
        <path class="cls-12" d="M469.14,1849.03c.62-.68,.64-1.17,.48-1.69-.8-2.56-7.28-8.04-26.47-12.37-15.93-3.59-22.95-1.16-24.59,.85-.12,.14-.38,.51-.28,.74,0,0-5.8-4.34,1.78-7.39,4.42-1.43,11.85-2.02,24.23,.78,13.81,3.11,23.62,7.43,28,12.18,5.15,6.31-3.14,6.9-3.14,6.9Z"/>
      </g>
    </g>
    <g>
      <g>
        <ellipse class="cls-4" cx="130.67" cy="1751.18" rx="36.26" ry="69.41" transform="translate(-1625.27 1771.43) rotate(-86.39)"/>
        <path class="cls-2" d="M183.9,1730.38c5.8,5.58,9.01,11.91,8.6,18.45-1.19,18.87-31.53,32.32-67.78,30.04-33.36-2.1-60.03-16.81-63.14-33.86-.09,.6-.16,1.2-.2,1.81-1.26,19.98,28.73,38.14,66.99,40.55,38.26,2.41,70.29-11.83,71.55-31.82,.58-9.24-5.53-18.09-16.03-25.17Z"/>
        <path class="cls-12" d="M137.02,1790.22c-2.89,0-5.82-.09-8.8-.28-18.91-1.19-36.49-6.18-49.49-14.05-13.51-8.18-20.59-18.56-19.91-29.23,1.37-21.73,34-36.77,74.29-34.23,18.91,1.19,36.49,6.18,49.49,14.05,13.51,8.18,20.59,18.56,19.91,29.23-1.27,20.13-29.35,34.51-65.49,34.51Zm-12.54-72.92c-15.01,0-29.02,2.62-40.14,7.56-12.6,5.6-19.83,13.45-20.38,22.12-.55,8.66,5.65,17.36,17.44,24.5,12.3,7.45,29.05,12.18,47.14,13.32,18.1,1.14,35.3-1.45,48.44-7.29,12.6-5.6,19.83-13.45,20.38-22.12l2.57,.16-2.57-.16c.55-8.66-5.65-17.36-17.44-24.5-12.3-7.45-29.05-12.18-47.14-13.32-2.79-.18-5.57-.26-8.3-.26Z"/>
      </g>
      <g>
        <path class="cls-2" d="M88.3,1755.33c-4.02-6.31,1.31-19.29,38.09-18.11,36.78,1.19,51.51,11.18,46.22,22.57-14.5,14.17-73.17,8.22-84.31-4.47Z"/>
        <path class="cls-12" d="M172.61,1759.8c1.05-2.25,.93-4.37-.36-6.46-3.66-5.94-17.65-12.62-45.94-13.53-28.92-.92-36.16,7.76-37.69,10.45-1.07,1.88-1.18,3.73-.32,5.09,0,0-7.49-.86-4.16-7.63,2.42-4.26,11.4-14.04,42.33-13.05,26.14,.85,44.42,6.67,50.16,15.98,3.08,6.43-4.03,9.16-4.03,9.16Z"/>
      </g>
    </g>
    <g>
      <path class="cls-7" d="M2077.33,1737.58s-102.58,20.15-197.38,75.8c-94.8,55.65-262.66,189.68-349.21,246.87-86.55,57.19-256.61,166.08-388.94,185.93-123.66,18.55-216.93,14.88-322.04-68.46-48.44-38.41-76-96.05-90.14-163.05-14.79-70.03-17.92-141.87-39.69-195.75-41.38-102.4-136.18-198.23-278.21-236.26-152.17-40.75-275.12-13.91-310.67,0,104.41-8.34,289.15,58.55,392.59,165.38,128.13,132.33,122.46,340.97,247.3,472.96,109.59,115.86,236.48,145.29,420.41,117.47,183.93-27.82,296.76-109.74,423.5-197.84,126.74-88.1,476.47-366.31,644.73-350.86l-152.24-52.19Z"/>
      <path class="cls-1" d="M355.63,1583.38c53.56,5.2,158.17,46.35,224.31,105,58.89,52.22,87.57,114.2,95.26,141.96-42.51-69.34-76.56-116.92-135.2-157.78-108.06-75.28-184.36-89.19-184.36-89.19Z"/>
      <path class="cls-1" d="M880.3,2229.51s54.7,44.82,192.82,34.31c122.91-9.35,178.99-38.92,178.99-38.92-40.33,29.96-112.8,42.83-177.64,48.01-79.77,6.37-156.87-4-194.16-43.4Z"/>
      <path class="cls-1" d="M2015.27,1763.9c-39.54,10.07-114.82,48.01-157.84,77.05-43.02,29.04-131.36,95.1-148.26,106.63,29.45-13.06,90.3-58.32,156.33-101.78,75.41-49.64,149.77-81.89,149.77-81.89Z"/>
      <path class="cls-5" d="M2221.38,1759.46c-126.58-71.07-537.72,271.64-652.96,351.75-126.74,88.1-231.93,169.53-416.18,195.12-178.86,24.84-293.2-7.49-389.47-109.34-119.32-126.24-101.4-311.51-245.39-467.23-100.96-109.18-300.53-180.61-416.33-147.11,104.41-8.34,289.15,58.55,392.59,165.38,128.13,132.33,122.46,340.97,247.3,472.96,109.59,115.86,236.48,145.29,420.41,117.47,183.93-27.82,296.76-109.74,423.5-197.84,126.74-88.1,476.47-366.31,644.73-350.86l-8.19-30.31Z"/>
      <path class="cls-12" d="M1042.95,2350.86c-44.14,0-83.64-4.91-120.36-14.76-68.84-18.48-128.88-55.55-183.53-113.33-62.18-65.74-92.63-151.64-122.08-234.72-29.94-84.46-60.89-171.8-125.2-238.21-47.88-49.45-117.15-93.94-195.04-125.28-72.41-29.13-143.66-43.46-195.49-39.32l-17.39,1.39,16.24-6.36c20.13-7.88,60.22-17.44,112.38-20.67,66.32-4.1,133.57,2.82,199.89,20.58,68.03,18.22,127.88,50.03,177.9,94.56,45.12,40.17,80.41,89.7,102.03,143.23,14.08,34.84,20.37,76.79,27.04,121.21,3.68,24.55,7.49,49.93,12.78,74.97,15.28,72.38,45.3,126.74,89.22,161.56,102.84,81.54,195.23,86.65,320.06,67.93,124.2-18.63,280.87-114.81,387.91-185.53,35.18-23.24,83.95-59.31,135.59-97.49,73.78-54.56,157.41-116.39,213.74-149.45,50.48-29.63,103.39-50.03,141.74-62.61,33.1-10.86,56.95-10.97,56.95-10.97-1.02,.23-102.73,23.23-196.07,78.02-56.09,32.92-139.6,94.67-213.28,149.15-51.7,38.22-100.52,74.33-135.81,97.64-107.45,70.99-264.77,167.54-389.98,186.33-72.08,10.81-122.56,12-168.8,3.97-55.22-9.59-104.54-32.77-155.23-72.96-44.89-35.59-75.53-90.95-91.07-164.54-5.32-25.19-9.14-50.65-12.83-75.27-6.62-44.11-12.87-85.77-26.72-120.05-45.59-112.84-148.95-200.59-276.49-234.74-65.79-17.62-132.48-24.49-198.24-20.41-39.06,2.42-71.66,8.59-93.38,14.64h.1c50.33,0,114.33,14.32,179.13,40.39,78.55,31.6,148.45,76.52,196.82,126.48,65.09,67.22,96.24,155.1,126.36,240.08,29.27,82.58,59.54,167.96,120.96,232.91,105.76,111.81,226.91,145.62,418.15,116.69,177.32-26.82,290.36-105.5,410.03-188.79l12.39-8.62c18.63-12.95,42.01-29.96,69.1-49.66,78.67-57.23,186.42-135.62,292.91-198.38,58.25-34.33,110.34-60.45,154.81-77.63,52.1-20.13,95.72-28.75,129.62-25.64l-.47,5.13c-33.11-3.04-75.93,5.48-127.29,25.31-44.21,17.08-96.04,43.07-154.05,77.26-106.28,62.64-213.91,140.93-292.5,198.11-27.11,19.72-50.51,36.75-69.19,49.73l-12.38,8.61c-61.38,42.72-119.35,83.07-184.82,116.49-73.62,37.59-145.88,60.83-227.39,73.16-43.38,6.56-82.64,9.85-118.78,9.85Z"/>
    </g>
  </g>
  <g>
    <g>
      <path class="cls-7" d="M2221.38,1759.46s-45.67-17.35-96.41,38.23c-64.17,70.3-109.51,202.72-190.82,282.65-75.11,73.84-172.57,102.89-251.01,169.27-62.51,52.9-122.11,149.59-129.21,255.78-6.39,95.62,25.04,144.66,34,142.2,18.95-5.2,31.83-100,74.79-168.47,33.09-52.74,92.13-107.23,178.69-130.9,86.55-23.67,215.44-12.73,307.58-87.15,113.01-91.26,185.98-259.56,214.32-358.48l-141.93-143.14Z"/>
      <path class="cls-1" d="M1617.76,2363.17s16.52-63.76,75.36-109.33c57.17-44.27,154.83-89.65,168.92-106.53-62.99,71.83-180.52,92.57-244.28,215.86Z"/>
      <path class="cls-1" d="M2204.07,1765.25c-21.95,1.04-49.92,16.13-82.67,57.69-41.92,53.2-82.67,147.79-82.67,147.79,63.03-105.07,107.55-182.68,165.34-205.48Z"/>
      <path class="cls-5" d="M2340.88,1879.97c-107.5,74.93-102.14,241.24-211.51,329.57-92.14,74.41-201.52,74.34-288.07,98.01-86.55,23.67-164.08,87.64-197.17,140.39-41.32,65.86-52.9,171.78-77.63,169.07,7.91,21.37,17.18,31.76,21.43,30.59,18.95-5.2,31.83-100,74.79-168.47,33.09-52.74,92.13-107.23,178.69-130.89,86.55-23.67,215.44-12.73,307.58-87.15,113.01-91.27,185.98-259.56,214.32-358.48l-22.44-22.63Z"/>
      <path class="cls-12" d="M1587.24,2650.25c-1.74,0-3.64-.83-5.66-2.49-12.3-10.05-35.86-58.11-30.22-142.55,3.33-49.74,18.58-101.24,44.12-148.92,22.68-42.33,53.22-80.92,85.99-108.65,35.93-30.4,76.41-53.35,115.57-75.54,46.54-26.38,94.66-53.65,135.3-93.6,44.37-43.61,77.73-102.54,110-159.52,26.53-46.85,51.58-91.1,80.73-123.03,26.69-29.25,52.29-38.97,69.07-41.99,18.38-3.3,29.24,5.49,29.24,5.49-.11-.03-11.45-3.52-28.66-.36-15.91,2.92-40.25,12.29-65.84,40.33-28.76,31.5-53.67,75.51-80.05,122.1-32.44,57.29-65.99,116.53-110.87,160.66-41.12,40.43-89.55,67.87-136.38,94.41-38.95,22.07-79.22,44.9-114.78,74.99-54.43,46.06-120.7,140.21-128.3,253.98-2.94,44.02,2.41,75.78,7.42,94.67,6.21,23.41,14.41,37.43,20.02,42.75,1.92,1.82,3.08,2.13,3.33,2.12,7.75-2.13,15.89-26.6,25.32-54.95,11.34-34.1,25.46-76.54,47.96-112.4,23.4-37.3,77.93-104.05,180.19-132.01,26.83-7.34,57.55-11.35,90.07-15.6,71.89-9.39,153.38-20.03,216.57-71.07,106.72-86.18,181.69-246.28,213.46-357.18l4.95,1.42c-31.98,111.63-107.53,272.83-215.18,359.77-64.32,51.94-146.57,62.69-219.14,72.17-32.34,4.22-62.89,8.21-89.38,15.46-100.57,27.5-154.18,93.11-177.19,129.78-22.17,35.33-36.18,77.45-47.43,111.29-11.1,33.38-18.44,55.44-28.87,58.3-.44,.12-.9,.18-1.37,.18Z"/>
    </g>
    <ellipse class="cls-5" cx="2232.89" cy="1858.01" rx="45.15" ry="32.46" transform="translate(-277.45 3319.57) rotate(-69.97)"/>
  </g>
  <g>
    <g>
      <path class="cls-4" d="M2374.65,2242.63s35.99,110.71,26.28,196.29c-8.34,73.49-30.81,146.83-18.55,250.39,16.5,139.27,111.22,221.51,134.92,214.3,18.1-5.51-11.45-117.29,2.58-191.11,13.91-73.2,41.49-97.37,55.56-154.56,14.06-57.19,16.5-117.33-8.68-153.72-25.17-36.39-192.1-161.58-192.1-161.58Z"/>
      <path class="cls-2" d="M2575.43,2557.94c14.06-57.19,16.5-117.33-8.68-153.72-7.4-10.69-27.04-29.06-51.09-49.66,4.59,4.78,8.35,9.16,10.98,12.97,25.17,36.39,45.18,116.51,31.12,173.7-14.06,57.19-38.7,82.53-53.3,155.6-17.39,87.06,5.78,165.66-5.59,180.78-5.82,7.74-15.91,7.57-27.81,.49,19.97,19.07,37.72,28.12,46.25,25.52,18.1-5.51-11.45-117.29,2.58-191.11,13.91-73.2,41.49-97.37,55.56-154.56Z"/>
      <path class="cls-12" d="M2514.03,2906.64c-7.4,0-16.46-4.8-23.26-9.24-21.72-14.19-45.98-41.28-64.88-72.46-24.42-40.27-40.35-87.07-46.07-135.32-9.09-76.71,.59-135.65,9.95-192.66,3.3-20.1,6.41-39.08,8.6-58.33,9.54-84.03-25.81-194.1-26.17-195.21l-2.52-7.74,6.51,4.88c6.83,5.12,167.55,125.86,192.67,162.18,30.41,43.95,18.73,116.48,9.06,155.8-6.27,25.5-15.06,44.2-24.37,64-11.53,24.52-23.45,49.88-31.16,90.43-7.13,37.51-2.88,85.12,.53,123.38,3.89,43.65,5.45,66.57-4.89,69.72-1.26,.38-2.61,.56-4.03,.56Zm-134.6-657.17c7.83,26.6,32.26,117.52,24.06,189.75-2.2,19.38-5.33,38.42-8.64,58.58-9.3,56.65-18.91,115.23-9.91,191.21,5.63,47.53,21.31,93.61,45.35,133.26,18.52,30.55,42.19,57.02,63.29,70.81,9.84,6.43,18.43,9.44,22.96,8.06,1.54-.47,4.15-3.49,4.24-18.4,.07-11.74-1.34-27.59-2.98-45.93-3.44-38.58-7.73-86.58-.46-124.8,7.83-41.2,19.89-66.85,31.56-91.66,9.19-19.56,17.88-38.03,24.03-63.03,9.46-38.48,20.97-109.35-8.3-151.64-21.88-31.63-154.53-132.98-185.21-156.22Z"/>
    </g>
    <g>
      <g>
        <ellipse class="cls-4" cx="2447.23" cy="2805.78" rx="27.73" ry="50.16" transform="translate(-546.64 592.62) rotate(-12.43)"/>
        <path class="cls-2" d="M2474.51,2800.73c-5.68-27.11-22.5-46.83-37.57-44.04-.05,0-.1,.03-.16,.04,11.92,3.6,24.11,19.42,29.73,40.26,6.98,25.9,1.16,49.71-12.99,53.17-5.76,1.41-12-.81-17.86-5.63,6.7,7.64,14.49,11.69,21.86,10.33,15.07-2.79,22.67-27.03,16.99-54.14Z"/>
        <path class="cls-12" d="M2454.59,2857.72c-15.64,0-31.51-19.4-37.16-46.35-3.88-18.51-1.79-36.74,5.47-47.56,3.57-5.33,8.26-8.66,13.58-9.64,16.68-3.09,34.5,17.13,40.56,46.04,3.88,18.51,1.79,36.74-5.47,47.56-3.57,5.33-8.26,8.66-13.58,9.65-1.13,.21-2.27,.31-3.4,.31Zm-14.8-98.71c-.8,0-1.6,.07-2.38,.22-3.97,.74-7.42,3.24-10.23,7.45-6.51,9.71-8.31,26.43-4.7,43.63,5.3,25.27,21.13,44.54,34.58,42.03,3.97-.74,7.42-3.24,10.24-7.45,6.51-9.71,8.31-26.43,4.7-43.63-4.99-23.79-19.32-42.25-32.2-42.25Z"/>
      </g>
      <g>
        <path class="cls-2" d="M2436.26,2777.56c3.89-3.96,14.18-3.18,20.48,22.68,6.3,25.86,1.85,37.24-7.63,35.65-11.31-7.96-21.01-44.26-12.84-58.33Z"/>
        <path class="cls-12" d="M2449.11,2835.89c1.79,.3,3.25-.18,4.45-1.47,3.39-3.65,5.36-14.38,.68-33.56-4.8-19.71-12.31-23.2-14.5-23.81-1.47-.4-2.77-.21-3.48,.51,0,0-1.15-6.55,4.84-5.48,3.68,1.01,12.82,5.73,18.14,27.55,4.45,18.25,3.75,32.21-1.92,38.29-6.14,4.88-8.22-2.04-8.22-2.04Z"/>
      </g>
    </g>
    <g>
      <g>
        <ellipse class="cls-4" cx="2398.58" cy="2653.92" rx="27.73" ry="50.16" transform="translate(-142.47 136.08) rotate(-3.16)"/>
        <path class="cls-2" d="M2426.31,2653.33c-1.24-27.67-14.66-49.84-29.98-49.52-1.85,.04-3.64,.42-5.36,1.08,14.17,1.09,27.26,21.95,28.38,46.73,1.16,25.69-9.56,47.02-24.39,47.34-3.17,.07-7.57-2.02-10.47-3.7,4.76,5.62,10.39,8.88,16.32,8.76,15.32-.33,26.73-23.02,25.5-50.69Z"/>
        <path class="cls-12" d="M2400.48,2706.6c-16.79,0-30.9-22.7-32.21-51.98-.85-18.9,4.16-36.55,13.06-46.05,4.38-4.68,9.55-7.22,14.95-7.33,17.01-.36,31.29,22.47,32.61,51.98,.85,18.9-4.16,36.55-13.06,46.05-4.38,4.68-9.55,7.22-14.95,7.33-.13,0-.27,0-.4,0Zm-3.82-100.22c-.09,0-.18,0-.27,0-4.04,.09-7.84,2-11.3,5.7-7.99,8.53-12.46,24.74-11.67,42.3,1.15,25.62,13.51,47.06,27.08,47.06,.09,0,.18,0,.27,0h0c4.04-.09,7.84-2,11.3-5.7,7.99-8.53,12.46-24.74,11.67-42.3-1.15-25.62-13.52-47.06-27.08-47.06Z"/>
      </g>
      <g>
        <path class="cls-2" d="M2392.3,2624.29c4.48-3.28,14.5-.85,16.56,25.69,2.05,26.54-4.18,37.05-13.28,33.95-12.61-10.8-14.53-46.8-3.28-59.64Z"/>
        <path class="cls-12" d="M2395.58,2683.93c1.72,.59,3.23,.35,4.63-.73,3.94-3.05,7.6-13.33,6.08-33.02-1.56-20.22-8.41-24.89-10.47-25.83-1.38-.64-2.69-.66-3.51-.05,0,0,0-6.66,5.66-4.63,3.47,1.59,11.73,7.72,13.46,30.12,1.45,18.73-1.49,32.39-8.06,37.48-6.09,3.82-7.79-3.34-7.79-3.34Z"/>
      </g>
    </g>
    <g>
      <g>
        <ellipse class="cls-4" cx="2476.39" cy="2666.28" rx="27.73" ry="50.16" transform="translate(-143.03 140.38) rotate(-3.16)"/>
        <path class="cls-2" d="M2504.13,2665.69c-1.24-27.64-14.63-49.79-29.93-49.51,11.84,5.08,21.62,23.34,23.27,45.57,1.98,26.71-8.52,48.98-23.45,49.73-4.14,.21-8.17-1.31-11.9-4.11,4.8,5.77,10.51,9.14,16.52,9.01,15.32-.33,26.73-23.02,25.5-50.69Z"/>
        <path class="cls-12" d="M2478.29,2718.96c-16.79,0-30.9-22.7-32.21-51.98-.85-18.9,4.16-36.55,13.06-46.05,4.38-4.68,9.55-7.22,14.95-7.33,.13,0,.27,0,.4,0,16.79,0,30.9,22.7,32.21,51.98,.85,18.9-4.16,36.55-13.06,46.05-4.38,4.68-9.55,7.22-14.95,7.33-.13,0-.27,0-.4,0Zm-3.82-100.22c-.09,0-.18,0-.27,0-4.04,.09-7.84,2-11.3,5.7-7.99,8.53-12.46,24.74-11.67,42.3,1.15,25.8,13.67,47.34,27.35,47.06h0c4.04-.09,7.84-2,11.3-5.7,7.99-8.53,12.46-24.74,11.67-42.3-1.15-25.62-13.51-47.06-27.08-47.06Z"/>
      </g>
      <g>
        <path class="cls-2" d="M2470.12,2636.66c4.48-3.28,14.5-.85,16.56,25.69,2.05,26.54-4.18,37.05-13.28,33.95-14.34-11.25-10.76-50.17-3.27-59.64Z"/>
        <path class="cls-12" d="M2473.39,2696.29c1.72,.59,3.23,.35,4.63-.73,3.94-3.05,7.61-13.33,6.08-33.02-1.56-20.22-8.41-24.89-10.47-25.83-1.38-.63-2.69-.65-3.51-.05,0,0,.33-6.48,5.66-4.63,3.47,1.59,11.73,7.72,13.46,30.12,1.45,18.73-1.49,32.39-8.06,37.48-6.77,3.72-7.79-3.34-7.79-3.34Z"/>
      </g>
    </g>
    <g>
      <g>
        <ellipse class="cls-4" cx="2519.88" cy="2541.75" rx="50.16" ry="27.73" transform="translate(-613.08 4272.31) rotate(-74.16)"/>
        <path class="cls-2" d="M2534.06,2493.64c-.47-.15-.96-.22-1.44-.32,10.12,8.25,13.57,29.16,7.47,51.08-7.1,25.55-24.45,42.74-38.73,38.41-2.88-.88-5.4-2.59-7.56-4.93,2.69,6.01,6.7,10.32,11.89,11.98,14.59,4.68,32.77-13.07,40.61-39.64,7.84-26.57,2.36-51.9-12.23-56.58Z"/>
        <path class="cls-12" d="M2510.5,2593.18c-1.92,0-3.79-.29-5.6-.87-16.16-5.18-22.27-31.43-13.92-59.76,5.35-18.14,15.83-33.2,27.34-39.3,5.67-3,11.38-3.71,16.53-2.07,16.16,5.18,22.27,31.43,13.92,59.76-5.35,18.14-15.83,33.2-27.34,39.3-3.68,1.95-7.38,2.93-10.93,2.93Zm18.71-97.71c-2.69,0-5.53,.78-8.48,2.34-10.33,5.47-19.83,19.34-24.81,36.2-7.3,24.77-2.47,49.22,10.55,53.4,3.85,1.23,8.07,.66,12.54-1.71,10.33-5.47,19.83-19.34,24.81-36.2,7.3-24.77,2.47-49.22-10.55-53.4-1.31-.42-2.67-.63-4.07-.63Z"/>
      </g>
      <g>
        <path class="cls-2" d="M2523.59,2511.7c5.31-1.65,13.99,3.92,7.29,29.68-6.7,25.76-16.01,33.68-23.61,27.78-8.41-15.09,3.5-52.54,16.31-57.46Z"/>
        <path class="cls-12" d="M2507.27,2569.15c1.43,1.12,2.95,1.38,4.62,.81,4.72-1.61,11.53-10.13,16.5-29.24,5.1-19.63,.15-26.27-1.49-27.83-1.1-1.05-2.34-1.5-3.31-1.19,0,0,1.8-6.22,6.86-2.53,2.76,2.64,8.58,11.12,2.92,32.86-4.73,18.18-11.95,30.14-19.82,32.82-7.19,2.59-6.28-5.69-6.28-5.69Z"/>
      </g>
    </g>
    <g>
      <g>
        <ellipse class="cls-4" cx="2431.14" cy="2506.61" rx="52.29" ry="28.91" transform="translate(-501.77 4401.75) rotate(-78.74)"/>
        <path class="cls-2" d="M2444.25,2456.24c8.52,9.6,12.48,28.48,9.1,48.96-4.55,27.64-20.72,47.7-36.1,44.79-5.02-.95-9.31-4.25-12.69-9.19,3.3,9.01,8.75,15.32,15.84,16.98,15.55,3.65,32.96-16.31,38.89-44.56,5.62-26.77-1.1-51.36-15.04-56.98Z"/>
        <path class="cls-12" d="M2424.12,2560.78c-1.45,0-2.89-.16-4.3-.5-17.16-4.02-25.66-30.73-19.35-60.8,4.04-19.27,13.65-35.76,25.08-43.04,5.61-3.57,11.46-4.79,16.92-3.51,17.16,4.02,25.66,30.73,19.35,60.8-4.04,19.27-13.65,35.76-25.08,43.04-4.16,2.65-8.46,4-12.62,4Zm14.01-103.19c-3.17,0-6.46,1.07-9.8,3.2-10.3,6.56-19.04,21.79-22.81,39.75-5.54,26.4,1.55,51.46,15.49,54.73h0c4.13,.97,8.49,.01,12.97-2.84,10.3-6.56,19.04-21.79,22.81-39.75,5.54-26.4-1.55-51.46-15.49-54.73-1.04-.24-2.1-.37-3.17-.37Z"/>
      </g>
      <g>
        <path class="cls-2" d="M2432.45,2474.98c5.38-2.15,14.9,3.01,10.09,30.33-4.81,27.32-13.89,36.42-22.27,30.92-9.49-12.51-2.99-52.84,12.18-61.25Z"/>
        <path class="cls-12" d="M2420.27,2536.23c1.62,1.06,3.24,1.21,4.97,.47,4.79-2.07,11.19-11.52,14.77-31.83,3.68-20.88-2.06-27.4-3.91-28.9-1.26-1.02-2.62-1.39-3.64-.98,0,0,1.57-6.12,6.89-3.02,3.07,2.5,9.79,10.79,5.74,33.79-3.39,19.24-9.88,32.25-17.8,35.67-7.44,2.94-7.01-5.2-7.01-5.2Z"/>
      </g>
    </g>
  </g>
  <g>
    <g>
      <ellipse class="cls-4" cx="2390.84" cy="2316.08" rx="39.16" ry="57.13" transform="translate(-784.47 1317.22) rotate(-26.63)"/>
      <path class="cls-2" d="M2354.89,2331.57c.32,.69,.6,1.38,.94,2.06,14.14,28.2,41.28,43.21,60.61,33.52,17.29-8.67,22.44-34.15,13.23-59.6-5.32,37.19-39.89,59.98-74.79,24.03Z"/>
      <path class="cls-12" d="M2403.65,2372.68c-6.65,0-13.69-1.96-20.7-5.83-11.9-6.58-22.34-17.97-29.41-32.07-7.07-14.1-9.95-29.28-8.1-42.76,1.89-13.83,8.52-24.24,18.65-29.32,20.57-10.31,49.31,5.23,64.07,34.67h0c14.75,29.43,10.02,61.76-10.55,72.08-4.31,2.16-9.02,3.24-13.95,3.24Zm-25.6-108.06c-4.09,0-8.03,.86-11.66,2.69-8.57,4.3-14.2,13.32-15.85,25.41-1.71,12.45,.99,26.57,7.6,39.75,6.61,13.18,16.3,23.79,27.3,29.87,10.68,5.91,21.28,6.79,29.85,2.5,18.03-9.04,21.73-38.27,8.25-65.16h0c-10.76-21.47-29.28-35.06-45.49-35.06Z"/>
    </g>
    <g>
      <ellipse class="cls-4" cx="2519.88" cy="2428.07" rx="39.16" ry="51.61" transform="translate(-959.7 2799.38) rotate(-50.03)"/>
      <path class="cls-2" d="M2563.7,2424.01c-2.73,6.29-8.92,11.73-14.13,15.21-9.73,15.8-26.37,25.61-61.24,12.7,1.97,2.14,4.07,4.22,6.39,6.16,21.84,18.31,50.81,19.72,64.71,3.14,8.22-9.8,9.27-23.7,4.28-37.21Z"/>
      <path class="cls-12" d="M2532.38,2475.37c-.81,0-1.62-.02-2.45-.06-12.78-.62-25.87-6.04-36.86-15.25-22.9-19.19-29.5-49.16-14.71-66.79,7.25-8.65,18.42-13.07,31.47-12.43,12.78,.62,25.87,6.04,36.86,15.25h0c10.99,9.21,18.61,21.16,21.46,33.63,2.9,12.73,.51,24.51-6.74,33.16-6.79,8.1-17.03,12.49-29.02,12.49Zm-24.99-89.44c-10.45,0-19.3,3.74-25.09,10.64-12.96,15.46-6.64,42.16,14.08,59.53,10.14,8.5,22.14,13.49,33.8,14.06,11.4,.55,21.08-3.21,27.27-10.59,6.19-7.38,8.2-17.58,5.67-28.7-2.59-11.38-9.61-22.33-19.74-30.83h0c-10.14-8.5-22.14-13.49-33.8-14.06-.74-.04-1.46-.05-2.18-.05Z"/>
    </g>
    <g>
      <ellipse class="cls-4" cx="2666.89" cy="2572.49" rx="39.16" ry="51.61" transform="translate(-1001.24 2048.24) rotate(-35.83)"/>
      <path class="cls-2" d="M2701.42,2553.76c1.4,33.23-22.42,66.45-68.81,37.85,.8,1.28,1.63,2.55,2.53,3.8,16.69,23.11,44.43,31.58,61.96,18.92,16.49-11.91,18.07-38.26,4.32-60.57Z"/>
      <path class="cls-12" d="M2678.21,2622.8c-4.24,0-8.66-.68-13.16-2.05-12.24-3.74-23.6-12.2-32-23.83-8.4-11.63-12.86-25.08-12.55-37.87,.31-13.06,5.52-23.89,14.67-30.49,9.15-6.61,21.06-8.15,33.56-4.33,12.24,3.74,23.6,12.2,32,23.83h0c8.4,11.63,12.86,25.08,12.55,37.87-.31,13.06-5.52,23.89-14.67,30.49-5.86,4.23-12.85,6.38-20.4,6.38Zm-22.62-95.46c-6.49,0-12.45,1.82-17.41,5.4-7.81,5.64-12.26,15.03-12.53,26.44-.28,11.67,3.84,24.01,11.58,34.73,7.74,10.72,18.16,18.51,29.33,21.92,10.91,3.33,21.23,2.06,29.04-3.58,7.81-5.64,12.26-15.03,12.53-26.44,.28-11.67-3.84-24.01-11.58-34.73h0c-7.74-10.72-18.16-18.51-29.33-21.92-3.99-1.22-7.89-1.82-11.63-1.82Z"/>
    </g>
    <g>
      <ellipse class="cls-4" cx="2739.02" cy="2786.14" rx="39.16" ry="51.61" transform="translate(-466.53 552.48) rotate(-10.62)"/>
      <path class="cls-2" d="M2700.25,2791.41c.1,.65,.17,1.3,.29,1.95,5.25,28.01,26.74,47.49,48,43.51,15.7-2.94,26.86-17.89,29.51-36.78-19.21,20.34-57.43,30.4-77.8-8.68Z"/>
      <path class="cls-12" d="M2743.02,2839.95c-20.54,0-39.99-19.35-45.01-46.12-2.64-14.1-.95-28.16,4.78-39.61,5.84-11.68,15.17-19.26,26.26-21.34,22.61-4.25,45.5,16.2,51,45.57,2.64,14.1,.95,28.16-4.78,39.61-5.84,11.68-15.17,19.26-26.26,21.34-2,.38-4,.56-5.99,.56Zm-7.94-102.48c-1.69,0-3.39,.15-5.09,.47-9.47,1.78-17.5,8.37-22.6,18.58-5.22,10.44-6.76,23.35-4.32,36.35,4.56,24.3,21.82,41.92,39.9,41.93,1.69,0,3.39-.15,5.09-.47,9.47-1.78,17.5-8.37,22.6-18.58,5.22-10.44,6.76-23.35,4.32-36.35h0c-4.56-24.3-21.82-41.93-39.9-41.93Z"/>
    </g>
    <g>
      <path class="cls-7" d="M2363.32,1926.73c-8.31,28.85-55.12,221.62,21.89,377.15,58.21,117.58,210.48,165.96,286.15,253.49,90.4,104.57,54.61,221.89,92.4,305.71,32.11,71.22,92.06,87.93,103.05,83.81,10.99-4.12-31.6-61.83-35.72-115.41-5.44-70.67,21.29-142.35-4.04-230.82-37.18-129.84-170.62-203.8-187.63-324.6-19.58-139.11,46.38-272.66-26.84-372.71l-249.25,23.39Z"/>
      <path class="cls-1" d="M2735.71,2490.64s55.74,41.76,74.53,115.79c13.49,53.13,8,97.75,1.89,124.45-.1-96.54-15.15-161.35-76.42-240.24Z"/>
      <path class="cls-5" d="M2784.63,2839.95c-30.32-86.79,7.7-197.63-82.7-302.2-75.68-87.54-197.73-139.21-255.95-256.78-74.6-150.68-4.22-247.33-68.59-355.56l-14.08,1.32c-8.31,28.85-55.12,221.62,21.89,377.15,58.21,117.58,210.48,165.96,286.15,253.5,90.4,104.57,54.61,221.89,92.4,305.7,32.11,71.22,92.06,87.93,103.05,83.81,5.6-2.1-2.71-18.12-12.75-40.4-20.44,8.6-50.67-12.88-69.41-66.54Z"/>
      <path class="cls-12" d="M2862.53,2950.06c-9.12,0-24.74-4.78-40.69-14.62-17.88-11.03-42.88-32.35-60.44-71.29-14.4-31.95-18.23-68.55-22.27-107.3-6.52-62.44-13.91-133.21-69.73-197.78-30.52-35.31-73.12-63.87-118.21-94.12-65.6-44-133.43-89.5-168.3-159.91-32.67-65.98-47.21-145.83-43.2-237.34,3.42-78.22,19.35-135.41,21.15-141.67l4.95,1.43c-1.79,6.2-17.56,62.84-20.95,140.47-3.96,90.62,10.39,169.63,42.67,234.82,34.26,69.19,101.51,114.3,166.55,157.92,45.39,30.45,88.27,59.2,119.24,95.03,56.87,65.79,64.35,137.41,70.95,200.61,4,38.33,7.78,74.53,21.85,105.72,17.02,37.75,41.18,58.38,58.45,69.03,20.37,12.56,37.24,14.98,41.35,13.43,1.61-2.33-5.31-17.46-10.37-28.5-10.42-22.78-24.69-53.99-27.02-84.3-2.05-26.66,.4-53.07,3-81.03,4.31-46.4,8.77-94.39-6.95-149.28-17.64-61.59-57.3-110.74-95.65-158.27-42.72-52.94-83.08-102.95-92.05-166.68-7.67-54.49-1.87-106.98,3.74-157.75,8.6-77.77,16.71-151.24-28.03-215.33,0,0,23.04,18.88,33.46,62.94,11.29,48.07,5.6,99.51-.31,152.95-5.57,50.45-11.34,102.61-3.76,156.46,8.77,62.32,48.69,111.79,90.96,164.17,38.68,47.93,78.67,97.49,96.59,160.08,15.99,55.83,11.48,104.3,7.13,151.18-2.58,27.73-5.01,53.93-2.99,80.16,2.26,29.4,16.31,60.12,26.57,82.55,8.48,18.55,12.47,27.69,10.45,32.59-.57,1.37-1.59,2.37-2.96,2.88-1.33,.5-3.08,.75-5.17,.75Z"/>
    </g>
  </g>
  <g>
    <g>
      <path class="cls-4" d="M3594.15,3046.36c67.43,64.9,134.81,190.44,83.35,235.18-57.95,50.38-226.09-62.6-303.37-104.84-77.28-42.25-280.29-103.05-385.39-74.19,99.96-70.07,162.72-117.18,287.5-131.9,192.7-22.73,317.91,75.76,317.91,75.76Z"/>
      <path class="cls-2" d="M3386.38,3147.29c-78.09-40.75-279.62-110.77-397.64-44.8,105.11-28.85,308.11,31.94,385.39,74.19,77.28,42.25,245.42,155.23,303.37,104.84,15.62-13.58,20.24-34.63,17.28-59.15-21.36,106.02-226.57-32.38-308.4-75.09Z"/>
      <path class="cls-12" d="M3637.69,3296.85c-20.87,0-47.03-6.35-78.87-19.06-49-19.58-102.23-50.55-145-75.43-15-8.73-29.17-16.98-40.93-23.4-41.83-22.87-113.11-47.8-181.6-63.51-84.3-19.34-155.99-23.05-201.87-10.46l-14.32,3.93,12.16-8.52c3.99-2.79,7.91-5.55,11.79-8.27,94.21-66.16,156.44-109.87,276.89-124.08,100.08-11.81,181.65,9.54,232.46,29.52,55.1,21.67,87.03,46.53,87.34,46.78l.19,.17c51.43,49.5,103.75,135.48,102.28,193.68-.49,19.51-6.89,34.75-19.02,45.29-10.25,8.91-24.02,13.37-41.51,13.37Zm-583.74-204.34c39.51,0,86.68,6.02,138.5,17.91,68.91,15.81,140.71,40.94,182.92,64.01,11.82,6.46,26.02,14.72,41.05,23.47,84.29,49.05,211.68,123.17,259.4,81.69,10.99-9.56,16.8-23.53,17.25-41.54,1.44-56.74-50.01-141-100.6-189.75-1.96-1.51-33.17-25.23-86.14-46.03-50.23-19.72-130.86-40.79-229.78-29.12-119.15,14.05-180.97,57.47-274.53,123.18-.31,.22-.63,.44-.95,.66,15.49-3,33.24-4.48,52.89-4.48Z"/>
    </g>
    <g>
      <g>
        <ellipse class="cls-4" cx="3276.84" cy="3116.36" rx="31.59" ry="60.47" transform="translate(-485.67 5624.92) rotate(-77.25)"/>
        <path class="cls-2" d="M3332.48,3114.2c.41,2.3,.42,4.59-.08,6.83-3.72,16.45-31.95,24.08-63.05,17.05-28.95-6.55-50.16-23.5-49.95-39.08-.66,1.28-1.22,2.61-1.54,4.02-3.85,17.01,19.44,36.78,52.01,44.15,32.57,7.37,62.1-.45,65.95-17.47,1.14-5.06-.16-10.35-3.34-15.5Z"/>
        <path class="cls-12" d="M3293.87,3152.52c-7.87,0-16.2-.95-24.57-2.84-16.15-3.65-30.63-10.4-40.76-19.01-10.59-8.99-15.28-19.01-13.19-28.23,2.08-9.21,10.63-16.24,24.06-19.8,12.85-3.4,28.82-3.27,44.97,.39,16.15,3.65,30.63,10.4,40.76,19.01,10.59,8.99,15.28,19.01,13.19,28.23-2.08,9.21-10.63,16.24-24.06,19.8-6.19,1.64-13.1,2.46-20.4,2.46Zm-34.08-67.18c-6.85,0-13.31,.76-19.08,2.29-11.48,3.04-18.71,8.71-20.35,15.96s2.45,15.47,11.5,23.16c9.51,8.07,23.21,14.43,38.56,17.91,15.36,3.47,30.46,3.62,42.52,.43,11.48-3.04,18.71-8.71,20.35-15.96,1.64-7.25-2.45-15.47-11.5-23.16-9.51-8.08-23.21-14.44-38.56-17.91-8.01-1.81-15.96-2.72-23.44-2.72Z"/>
      </g>
      <g>
        <path class="cls-2" d="M3240.13,3113.93c-2.59-5.98,3.49-16.28,34.96-10.17,31.47,6.11,42.48,16.56,36.35,25.62-13.95,8.88-63.59-1.68-71.32-15.45Z"/>
        <path class="cls-12" d="M3311.44,3129.39c1.15-1.69,1.33-3.43,.55-5.3-2.29-5.54-13.32-13.12-37.39-17.8-19.52-3.79-30.12-.6-33.54,3.65-1.1,1.37-1.44,2.82-.93,3.99,0,0-6.49-1.97-3.08-7.22,2.71-3.37,11.89-10.66,38.54-5.48,22.48,4.37,37.49,11.98,41.17,20.89,2.15,5.3-5.31,7.27-5.31,7.27Z"/>
      </g>
    </g>
    <g>
      <g>
        <ellipse class="cls-4" cx="3341.48" cy="3040.95" rx="31.59" ry="60.47" transform="translate(244.09 6330.19) rotate(-89.02)"/>
        <path class="cls-2" d="M3394.56,3026.51c1.41,2.73,2.19,5.6,2.14,8.56-.29,16.95-26.11,30.25-57.66,29.71-31.38-.53-56.59-14.55-56.6-31.37-.89,2.09-1.38,4.27-1.42,6.51-.3,17.44,26.53,32.04,59.92,32.61,33.39,.57,60.7-13.11,61-30.55,.09-5.57-2.6-10.85-7.37-15.47Z"/>
        <path class="cls-12" d="M3342.95,3075.13c-.68,0-1.37,0-2.06-.02-35.35-.6-62.78-16.08-62.45-35.23,.16-9.44,7.09-18.07,19.51-24.29,11.89-5.95,27.55-9.05,44.11-8.8,35.35,.6,62.78,16.08,62.45,35.23-.16,9.44-7.09,18.07-19.51,24.29-11.39,5.71-26.26,8.81-42.05,8.81Zm-2.96-63.2c-15,0-29.04,2.91-39.73,8.27-10.62,5.32-16.54,12.34-16.67,19.77-.27,15.72,26.01,29.46,57.39,29.99,15.74,.28,30.56-2.66,41.71-8.25,10.62-5.32,16.54-12.34,16.67-19.77,.27-15.72-26.01-29.46-57.39-29.99-.66-.01-1.32-.02-1.98-.02Z"/>
      </g>
      <g>
        <path class="cls-2" d="M3305.05,3046.07c-3.75-5.33,.09-16.65,32.15-17.09,32.06-.44,44.97,7.54,40.81,17.67-12.38,10.96-60.87,10.32-72.97-.58Z"/>
        <path class="cls-12" d="M3300.55,3039.63c1.97-3.85,9.47-12.86,36.61-13.23,22.91-.29,39.14,4.08,44.57,12.05,4.01,6.55-3.72,8.2-3.72,8.2,.77-1.89,.6-3.62-.54-5.3-3.37-4.96-15.71-10.17-40.24-9.8-19.88,.27-29.61,5.56-32.09,10.42-.8,1.56-.83,3.05-.1,4.09,0,0-6.49-.56-4.49-6.44Z"/>
      </g>
    </g>
    <g>
      <g>
        <ellipse class="cls-4" cx="3529.75" cy="3072.55" rx="31.59" ry="60.47" transform="translate(-590.66 5291.1) rotate(-69.34)"/>
        <path class="cls-2" d="M3583.12,3074.12c1.18,4.1,1.22,8.09-.16,11.75-5.89,15.6-34.56,19.24-64.05,8.12-28.88-10.89-47.77-31.88-43.01-47.4-1.13,1.42-2.09,2.94-2.73,4.63-6.16,16.32,14.19,39.11,45.43,50.89,31.25,11.78,61.57,8.1,67.72-8.22,2.26-6,.92-12.88-3.21-19.77Z"/>
        <path class="cls-12" d="M3553.89,3111.66c-10.92,0-23.41-2.32-36.19-7.14-15.49-5.84-28.9-14.52-37.76-24.44-9.25-10.36-12.51-20.94-9.18-29.77,6.76-17.93,37.97-22.2,71.04-9.72,33.08,12.47,53.69,36.29,46.94,54.21h0c-4.15,11-17.51,16.86-34.85,16.86Zm-48.11-72.91c-15.15,0-26.9,4.63-30.19,13.37-2.62,6.95,.29,15.66,8.2,24.52,8.31,9.31,21,17.49,35.73,23.05,29.36,11.07,58.86,8,64.41-6.72h0c5.55-14.71-14.57-36.5-43.93-47.57-11.92-4.49-23.86-6.66-34.21-6.66Z"/>
      </g>
      <g>
        <path class="cls-2" d="M3493.73,3065.1c-1.74-6.28,5.7-15.65,36.03-5.26,30.33,10.39,39.8,22.25,32.48,30.39-19.92,8.87-62.17-9.7-68.51-25.13Z"/>
        <path class="cls-12" d="M3562.24,3090.22c1.37-1.52,1.78-3.21,1.28-5.17-1.51-5.8-11.38-14.83-34.59-22.78-18.81-6.44-29.75-4.74-33.73-1-1.28,1.2-1.81,2.6-1.47,3.82,0,0-5.76-3.07-2.06-7.57,3.15-2.97,13.25-8.91,38.93-.12,21.66,7.42,35.48,17.03,37.9,26.36,1.29,6.47-6.26,6.47-6.26,6.47Z"/>
      </g>
    </g>
    <g>
      <g>
        <ellipse class="cls-4" cx="3433.38" cy="3186.39" rx="31.59" ry="60.47" transform="translate(-759.55 5274.59) rotate(-69.34)"/>
        <path class="cls-2" d="M3484.08,3184c2.63,5.51,3.27,10.92,1.45,15.74-5.83,15.45-34.67,18.88-64.42,7.66-26.01-9.81-44.11-27.57-44.35-42.21-6,16.31,14.31,39,45.47,50.76,31.25,11.78,61.57,8.1,67.72-8.22,2.7-7.16,.3-15.56-5.88-23.73Z"/>
        <path class="cls-12" d="M3457.37,3225.43c-11.24,0-23.74-2.43-36.04-7.07-33.08-12.47-53.69-36.29-46.94-54.21,6.76-17.93,37.97-22.2,71.04-9.72,15.49,5.84,28.9,14.52,37.76,24.44,9.25,10.36,12.51,20.94,9.18,29.77-3.33,8.84-12.76,14.62-26.55,16.3-2.71,.33-5.54,.49-8.45,.49Zm-47.96-72.84c-15.15,0-26.9,4.63-30.19,13.38-5.55,14.71,14.57,36.5,43.93,47.57,14.73,5.55,29.67,7.79,42.05,6.28,11.79-1.43,19.73-6.05,22.35-13h0c2.62-6.95-.29-15.66-8.2-24.52-8.31-9.31-21-17.49-35.73-23.05-11.92-4.49-23.86-6.66-34.21-6.66Z"/>
      </g>
      <g>
        <path class="cls-2" d="M3397.35,3178.94c-1.74-6.28,5.7-15.65,36.03-5.26s39.8,22.25,32.48,30.39c-15.08,8.19-61.56-9.97-68.51-25.13Z"/>
        <path class="cls-12" d="M3465.86,3204.07c1.37-1.52,1.78-3.21,1.28-5.17-1.51-5.8-11.38-14.83-34.59-22.78-18.81-6.44-29.75-4.74-33.73-1-1.28,1.2-1.81,2.6-1.47,3.82,0,0-6.52-2.45-2.06-7.57,3.15-2.97,13.25-8.91,38.93-.12,21.67,7.42,35.48,17.03,37.9,26.36,1.45,6.86-6.26,6.46-6.26,6.46Z"/>
      </g>
    </g>
    <g>
      <g>
        <ellipse class="cls-4" cx="3578.1" cy="3264.87" rx="29.07" ry="55.66" transform="translate(-739.33 5460.76) rotate(-69.34)"/>
        <path class="cls-2" d="M3630.31,3273.28c-.17,.94-.42,1.86-.76,2.76-5.67,15.02-32.65,18.76-60.26,8.34-26.38-9.95-43.75-29.2-40.31-44-1.27,1.45-2.27,3.06-2.95,4.85-5.67,15.02,13.06,35.99,41.82,46.84,28.76,10.85,56.67,7.46,62.33-7.56,1.32-3.49,1.27-7.3,.13-11.23Z"/>
        <path class="cls-12" d="M3600.3,3301.06c-10.07,0-21.59-2.14-33.36-6.58-14.29-5.39-26.66-13.4-34.83-22.55-8.57-9.6-11.58-19.4-8.49-27.61,3.1-8.21,11.83-13.58,24.61-15.13,12.18-1.48,26.75,.68,41.05,6.07,14.29,5.39,26.66,13.4,34.83,22.55,8.57,9.6,11.58,19.4,8.49,27.61-3.85,10.21-16.23,15.64-32.29,15.64Zm-44.25-67.17c-2.49,0-4.89,.14-7.21,.42-10.77,1.31-18.02,5.51-20.41,11.84-2.39,6.32,.28,14.27,7.51,22.36,7.63,8.54,19.28,16.06,32.81,21.16,26.92,10.15,53.95,7.38,59.01-6.06,2.38-6.32-.28-14.27-7.51-22.36-7.63-8.54-19.28-16.06-32.81-21.16-10.78-4.06-21.67-6.19-31.4-6.19Z"/>
      </g>
      <g>
        <path class="cls-2" d="M3545.14,3257.95c-1.6-5.78,5.05-14.35,32.97-4.78,27.92,9.56,36.48,20.34,29.74,27.83-14.5,8.99-58.86-7.52-62.71-23.05Z"/>
        <path class="cls-12" d="M3607.84,3280.99c1.23-1.36,1.58-2.81,1.13-4.57-1.37-5.29-10.42-13.54-31.7-20.82-17.23-5.9-27.22-4.37-30.83-.97-1.12,1.05-1.59,2.26-1.3,3.32,0,0-6.21-1.95-2.23-7.07,2.92-2.76,12.29-8.29,36.04-.16,20.01,6.85,32.77,15.75,35.02,24.4,.8,7.37-6.11,5.87-6.11,5.87Z"/>
      </g>
    </g>
    <g>
      <g>
        <ellipse class="cls-4" cx="3636.93" cy="3189.43" rx="29.07" ry="55.66" transform="translate(-1200.38 3201.43) rotate(-41.39)"/>
        <path class="cls-2" d="M3674.36,3222.74c-11.69,10.3-36.88,.82-56.27-21.18-17.24-19.56-24.05-42.4-17.14-54.47-.26,.2-.56,.36-.81,.59-12.05,10.62-5.33,37.92,14.99,60.98,20.32,23.06,46.56,33.15,58.61,22.53,4.54-4,6.41-10.38,5.9-18.01-.84,3.87-2.55,7.16-5.27,9.56Z"/>
        <path class="cls-12" d="M3661.28,3238c-4.44,0-9.38-1.01-14.67-3.05-11.45-4.4-23.32-13.14-33.42-24.59-10.1-11.46-17.27-24.33-20.2-36.24-3.07-12.49-1.14-22.57,5.44-28.37,6.58-5.8,16.82-6.45,28.83-1.83,11.45,4.4,23.32,13.14,33.42,24.59,21.59,24.5,28.07,52.88,14.76,64.61-3.68,3.25-8.51,4.88-14.15,4.88Zm-48.68-91.98c-4.38,0-8.05,1.2-10.76,3.6-5.07,4.47-6.44,12.73-3.85,23.27,2.73,11.12,9.5,23.22,19.06,34.07,9.56,10.85,20.71,19.08,31.4,23.19,10.13,3.9,18.5,3.58,23.57-.89,10.77-9.5,3.81-35.75-15.22-57.34-9.56-10.85-20.71-19.08-31.4-23.19-4.7-1.81-9.02-2.71-12.81-2.71Z"/>
      </g>
      <g>
        <path class="cls-2" d="M3611.06,3167.88c1.3-5.86,11.18-10.31,31.36,11.22,20.18,21.53,22.69,35.06,13.23,38.52-18.06,1.89-46.37-32.27-44.59-49.74Z"/>
        <path class="cls-12" d="M3655.65,3217.62c1.72-.63,2.72-1.74,3.14-3.51,1.26-5.32-2.86-16.84-18.25-33.25-12.45-13.29-22-16.61-26.79-15.31-1.48,.41-2.46,1.25-2.7,2.32,0,0-1.01-8.35,7.51-7.49,5.64,.89,14.29,4.74,25.74,16.95,14.46,15.43,21.57,29.27,19.5,37.97-1.39,4.97-8.15,2.32-8.15,2.32Z"/>
      </g>
    </g>
    <g>
      <path class="cls-7" d="M2351.98,1872.79c-43.75,54.3-102.61,223.01-138.16,292.56-35.55,69.55-115.84,239.57-145.21,420.41-29.37,180.84,11.7,403.33,183.49,527,171.79,123.67,414.66,115.98,580.05,63.43,165.38-52.55,295.48-148.38,449.91-173.11,154.43-24.73,268.81,13.91,312.08,43.28-60.28-55.64-124.23-124.88-289.03-142.2-172.99-18.18-312.22,112.83-398.77,160.74-86.55,47.91-266.44,109.38-424.6,53.05-150.45-53.58-280.29-160.75-300.3-372.99-17.85-189.34,108-438.2,154.49-562.61,61.65-164.94,54.88-272.32,54.88-272.32l-38.84-37.24Z"/>
      <path class="cls-1" d="M2996.14,3020.99c34-27.65,132.13-83.99,213.04-101.4,80.92-17.41,168.56,3.07,202.58,17.41-61.36-12.68-120.07-23.76-196.91-7.68-69.91,14.63-149.45,52.24-218.72,91.67Z"/>
      <path class="cls-1" d="M2104.79,2554.5c-12.29,64.88-32.26,276.88,59.92,409.02-107.94-96.57-95.26-335.35-59.92-409.02Z"/>
      <g>
        <path class="cls-5" d="M2141.66,2718.96c15.2,161.21,101.4,284.88,229.14,345.78-99.25-62.83-174.51-162.39-189.35-319.78-17.85-189.34,108-438.2,154.49-562.61,61.65-164.94,54.88-272.32,54.88-272.32,0,0-19.06,95.93-81.7,253.4-49.09,123.4-185.32,366.18-167.46,555.52Z"/>
        <path class="cls-5" d="M3283.59,2974.9c-154.43,24.73-269.27,110.44-456.56,175.04-164.05,56.58-397.19,57.47-574.92-37.18,171.79,123.67,414.66,115.98,580.05,63.43,165.38-52.55,295.48-148.38,449.91-173.11,154.43-24.73,268.81,13.91,312.08,43.28-43.28-29.37-156.13-96.18-310.56-71.45Z"/>
      </g>
      <path class="cls-12" d="M2595.11,3214.82c-17.06,0-34-.56-50.74-1.69-54.15-3.67-105.69-13.24-153.19-28.44-52.05-16.66-99.34-40.16-140.57-69.84-41.45-29.84-77.08-66.76-105.91-109.74-26.6-39.67-47.54-84.64-62.23-133.67-26.28-87.72-32.1-189.32-16.39-286.09,28.29-174.2,103.28-338.65,145.46-421.17,13.19-25.8,29.52-65.41,46.81-107.33,19.8-48.01,41.4-100.38,61.79-140.44,16.64-33.35,31.85-43.61,31.85-43.61-26.97,35.91-59.86,115.65-88.87,186.02-17.33,42.03-33.7,81.72-46.99,107.71-42.04,82.25-116.78,246.14-144.96,419.65-27.63,170.17,5.78,397.32,182.45,524.49,175.45,126.3,420.89,112.91,577.76,63.07,69.36-22.04,132.71-51.81,193.97-80.6,85.59-40.22,166.44-78.21,256.31-92.6,68.32-10.94,137-10.47,198.62,1.37,45.02,8.65,76.14,21.06,95.45,30.82-56.28-52.48-121.93-110.35-270.87-126-134.52-14.13-249.51,63.25-333.47,119.76-23.09,15.54-44.91,30.22-63.79,40.68-25.28,13.99-94.03,48.43-186.22,65.89-88.76,16.82-169.67,12.55-240.49-12.67-183.07-65.2-284.67-191.43-302-375.18-6.44-68.29,4.83-149.6,34.44-248.58,25.21-84.27,59.46-166.68,86.99-232.9,13.13-31.59,24.47-58.87,33.21-82.27,60.73-162.47,57.14-271.06,57.1-272.13,0,0,5.8,19.19,2.24,52.79-5.07,47.77-18.62,125.15-54.5,221.15-8.78,23.49-20.13,50.81-33.28,82.45-53.95,129.82-135.49,326-121.06,479.02,17.12,181.58,117.58,306.34,298.6,370.81,146.86,52.31,319.37,4.21,422.49-52.87,18.69-10.34,39.41-24.29,63.41-40.44,84.62-56.95,200.5-134.94,336.88-120.61,154.94,16.28,220.68,77.68,278.68,131.86,3.98,3.71,7.91,7.39,11.83,11.01l-3.19,4.02c-25.41-17.24-67.81-32.77-113.4-41.53-61.03-11.72-129.09-12.19-196.83-1.34-89.15,14.28-169.68,52.12-254.93,92.18-61.41,28.86-124.92,58.7-194.6,80.84-74.57,23.7-157.39,36.18-237.83,36.18Z"/>
    </g>
  </g>
</svg>